<svg width="48" height="41" fill="none" xmlns="http://www.w3.org/2000/svg"><path fill-rule="evenodd" clip-rule="evenodd" d="M45.333 8.2H2.667v30.067h42.666V8.2zM2.667 5.467C1.194 5.467 0 6.69 0 8.2v30.067C0 39.777 1.194 41 2.667 41h42.666C46.806 41 48 39.776 48 38.267V8.2c0-1.51-1.194-2.733-2.667-2.733H2.667zm10.666-4.1C13.333.612 13.93 0 14.667 0h18.666c.737 0 1.334.612 1.334 1.367 0 .754-.597 1.366-1.334 1.366H14.667c-.737 0-1.334-.612-1.334-1.366z" fill="#7CB9FF"/><path d="M26.667 16.4c0 1.51-1.194 2.733-2.667 2.733-1.473 0-2.667-1.223-2.667-2.733s1.194-2.733 2.667-2.733c1.473 0 2.667 1.223 2.667 2.733zM13.333 28.7v1.367h8V32.8H10.667v-4.1c0-4.565 8.88-6.833 13.333-6.833 4.453 0 13.333 2.268 13.333 6.833v1.367h-2.666V28.7c0-.141-.047-.462-.6-.986-.574-.543-1.495-1.102-2.72-1.604-2.454-1.006-5.45-1.51-7.347-1.51-1.896 0-4.893.504-7.347 1.51-1.225.502-2.146 1.061-2.72 1.604-.553.524-.6.845-.6.986z" fill="#0D66CC"/><path d="M18.667 31.433c0-.754.597-1.366 1.333-1.366h2.667c.736 0 1.333.612 1.333 1.366 0 .755-.597 1.367-1.333 1.367H20c-.736 0-1.333-.612-1.333-1.367zm16-2.733c0-.755.597-1.367 1.333-1.367s1.333.612 1.333 1.367v2.733c0 .755-.596 1.367-1.333 1.367-.736 0-1.333-.612-1.333-1.367V28.7zm-8 2.733c0-.754.597-1.366 1.333-1.366s1.333.612 1.333 1.366c0 .755-.596 1.367-1.333 1.367-.736 0-1.333-.612-1.333-1.367z" fill="#0D66CC"/></svg>