<svg xmlns="http://www.w3.org/2000/svg" width="37" height="36" fill="none"><mask id="a" width="30.801" height="30.005" x="6.097" y="-2.866" fill="#000" maskUnits="userSpaceOnUse"><path fill="#fff" d="M6.097-2.866h30.801v30.005H6.097z"/><path d="M13.414 16.124c-.386-.376-.403-.968-.04-1.323L23.929 4.52c.365-.355.973-.338 1.36.038l4.195 4.087c.386.377.404.97.04 1.324L18.968 20.25c-.365.355-.973.338-1.36-.039l-4.195-4.087Z"/><path d="M22.649 7.129c-.386-.377-.404-.97-.04-1.324.308-.3.684-.814.996-1.278.335-.494 1.074-.561 1.529-.118l4.427 4.313a1.02 1.02 0 0 1-.15 1.583c-.39.254-.825.576-1.208.95l-.106.103c-.364.354-.867.234-1.253-.142L22.65 7.129ZM20.248 17.641c.386.376.404.969.04 1.324-.308.3-.684.814-.996 1.277-.335.495-1.074.562-1.529.119l-4.427-4.313a1.02 1.02 0 0 1 .15-1.583c.39-.255.825-.576 1.208-.95l.106-.103c.364-.355.867-.234 1.253.142l4.195 4.087Z"/></mask><path fill="#fff" d="m29.41 10.305-2.256-3.279 2.257 3.279Zm-5.805-5.778-3.384-2.17 3.384 2.17Zm-3.317 14.438-2.865-2.791 2.865 2.79Zm-5.594-5.45-2.865-2.79 2.865 2.79Zm1.359.04-2.865 2.79 2.865-2.79Zm-1.253-.143-2.865-2.791 2.865 2.791Zm-1.464 2.636 2.865-2.791-2.865 2.79Zm.15-1.583 2.257 3.279-2.257-3.279Zm4.277 5.896-2.865 2.79 2.865-2.79Zm1.529-.119 3.384 2.17-3.384-2.17Zm.956-2.6 2.865-2.792-2.865 2.791Zm-4.008-.05L26.794 7.31l-5.73-5.582-10.554 10.28 5.73 5.583ZM22.422 7.35l4.195 4.087 5.73-5.583-4.195-4.087-5.73 5.583Zm4.235-.172-10.553 10.28 5.73 5.583 10.553-10.28-5.73-5.583ZM20.475 17.42l-4.195-4.087-5.73 5.583 4.195 4.087 5.73-5.583Zm-4.372.039c1.374-1.338 3.336-1.048 4.372-.039l-5.73 5.583c1.808 1.762 4.987 2.086 7.089.038l-5.73-5.582Zm10.514-6.022c-1.036-1.01-1.333-2.921.04-4.259l5.73 5.582c2.102-2.047 1.77-5.144-.04-6.906l-5.73 5.583Zm.177-4.126c-1.374 1.338-3.336 1.048-4.372.039l5.73-5.583C26.344.005 23.165-.319 21.063 1.73l5.73 5.582ZM10.51 12.009c-2.102 2.048-1.77 5.145.04 6.907l5.73-5.583c1.036 1.01 1.333 2.92-.04 4.259l-5.73-5.583ZM22.269 7.2l4.427 4.313 5.73-5.582L28 1.618 22.269 7.2Zm7.44 1.224-4.195-4.087-5.73 5.583 4.195 4.087 5.73-5.583Zm-4.235.172c.633-.616 1.207-1.44 1.516-1.898l-6.77-4.34c-.129.191-.254.367-.363.51-.053.07-.094.12-.121.151-.03.035-.027.029.008-.005l5.73 5.582Zm1.68-1.57a12.11 12.11 0 0 0-1.816 1.437l5.73 5.582c.138-.134.347-.296.6-.462l-4.514-6.557Zm-1.816 1.437-.001.001-.001.001h-.001v.001h-.001v.001l-.001.001h-.001v.001h-.001v.001h-.001v.001h-.001v.001h-.001v.001h-.001v.001h-.001v.001h-.001v.001h-.001v.001h-.001v.001h-.001v.001h-.001v.001h-.001v.001h-.001v.001h-.001v.001h-.001v.001h-.001v.001h-.001v.001h-.001v.001h-.001v.001h-.001v.001h-.001v.001h-.001v.001h-.001v.001h-.001v.001h-.001v.001h-.001l-.001.001-.001.001-.001.001-.001.001-.001.001-.001.001-.001.001-.001.001h-.001v.001h-.001v.001h-.001v.001h-.001v.001h-.001v.001h-.001v.001h-.001v.001h-.001v.001h-.001v.001h-.001v.001h-.001v.001h-.001v.001h-.001v.001h-.001v.001h-.001v.001h-.001v.001h-.001v.001h-.001v.001h-.001v.001h-.001v.001h-.001v.001h-.001v.001h-.001v.001h-.001v.001h-.001v.001h-.001v.001h-.001v.001h-.001v.001h-.001l-.001.001-.001.001-.001.001-.001.001-.001.001-.001.001-.001.001-.001.001-.001.001-.001.001-.001.001-.001.001h-.001v.001h-.001v.001h-.001v.001h-.001v.001h-.001v.001h-.001v.001h-.001v.001h-.001v.001h-.001v.001h-.001v.001h-.001v.001h-.001v.001h-.001v.001h-.001v.001h-.001v.001h-.001v.001h-.001v.001h-.001v.001h-.001v.001h-.001v.001h-.001v.001h-.001v.001h-.001v.001h-.001v.001h-.001l5.73 5.583.001-.001.001-.001h.001v-.001l.001-.001.001-.001.001-.001.001-.001h.001v-.001h.001v-.001h.001v-.001h.001v-.001h.001v-.001h.001v-.001h.001v-.001h.001v-.001h.001v-.001h.001v-.001h.001v-.001h.001v-.001h.001v-.001h.001v-.001h.001v-.001h.001v-.001h.001v-.001h.001v-.001h.001v-.001h.001v-.001h.001v-.001h.001v-.001h.001v-.001h.001v-.001h.001v-.001h.001v-.001h.001v-.001h.001v-.001h.001v-.001H31v-.001H31l.001-.001.001-.001.001-.001h.001v-.001h.001v-.001h.001v-.001h.001v-.001h.001v-.001h.001v-.001l.001-.001h.001V14.1h.001V14.1h.001v-.001h.001v-.001h.001v-.001h.001v-.001h.001v-.001h.001v-.001h.001v-.001h.001v-.001h.001v-.001h.001v-.001h.001v-.001h.001v-.001h.001v-.001h.001v-.001h.001v-.001h.001v-.001h.001v-.001h.001v-.001h.001v-.001h.001v-.001h.001v-.001h.001v-.001h.001v-.001h.001v-.001h.001v-.001h.001l.001-.001.001-.001.001-.001.001-.001.001-.001.001-.001h.001v-.001h.001v-.001l.001-.001h.001v-.001h.001v-.001h.001v-.001h.001v-.001h.001v-.001h.001v-.001h.001v-.001h.001v-.001h.001v-.001h.001v-.001h.001v-.001h.001v-.001h.001v-.001h.001v-.001h.001v-.001h.001v-.001h.001v-.001h.001v-.001h.001v-.001h.001v-.001h.001l-5.73-5.583Zm-1.359 5.544c.617.6 1.586 1.261 2.885 1.455a4.825 4.825 0 0 0 4.098-1.313l-5.73-5.583a3.415 3.415 0 0 1 2.862-.907c.86.129 1.385.54 1.615.765l-5.73 5.583Zm2.717-2.494c-1.358-1.322-1.097-3.471.458-4.487l4.514 6.557c2.614-1.708 3.07-5.4.758-7.652l-5.73 5.582ZM28 1.618c-2.16-2.104-5.948-1.969-7.778.74l6.77 4.34c-1.162 1.718-3.472 1.72-4.722.502l5.73-5.582Zm-2.485 2.72c1.036 1.009 1.334 2.92-.04 4.258l-5.73-5.582c-2.102 2.047-1.77 5.144.04 6.906l5.73-5.583ZM20.628 17.57l-4.427-4.313-5.73 5.582 4.427 4.313 5.73-5.582Zm-7.44-1.225 4.195 4.087 5.73-5.582-4.195-4.087-5.73 5.582Zm4.235-.171c-.633.616-1.207 1.44-1.516 1.898l6.77 4.34c.129-.191.254-.367.363-.51a3.8 3.8 0 0 1 .121-.151c.03-.036.027-.029-.008.005l-5.73-5.582Zm-1.68 1.57a12.112 12.112 0 0 0 1.816-1.437l-5.73-5.583a4.127 4.127 0 0 1-.6.463l4.514 6.557Zm1.816-1.437.054-.053.052-.05-5.73-5.583-.052.05-.054.053 5.73 5.583Zm1.359-5.544c-.617-.601-1.586-1.261-2.885-1.456a4.825 4.825 0 0 0-4.098 1.314l5.73 5.582a3.415 3.415 0 0 1-2.862.908c-.86-.13-1.385-.541-1.615-.766l5.73-5.582Zm-2.717 2.494c1.358 1.322 1.096 3.47-.458 4.487l-4.514-6.557c-2.614 1.708-3.07 5.4-.758 7.652l5.73-5.582Zm-1.303 9.895c2.16 2.104 5.948 1.969 7.778-.74l-6.77-4.34c1.162-1.718 3.472-1.72 4.722-.502l-5.73 5.582Zm2.485-2.72c-1.036-1.01-1.334-2.92.04-4.258l5.73 5.582c2.102-2.048 1.77-5.144-.04-6.906l-5.73 5.582Z" mask="url(#a)"/><path fill="#fff" d="M16.055 8.414c0-.709.59-1.283 1.317-1.283s1.316.574 1.316 1.283c0 .708-.59 1.282-1.316 1.282-.728 0-1.317-.574-1.317-1.282ZM24.264 16.472l1.292-1.268 8.545 8.432a.84.84 0 0 1 0 1.21.894.894 0 0 1-1.241 0l-8.596-8.374Z"/><path stroke="#fff" stroke-linecap="round" stroke-width="4" d="M34.075 24.959 26 17M16 7.5l-1-1"/><path fill="#fff" fill-rule="evenodd" d="M21 30H9a2 2 0 0 0-2 2h8v4h7v-4h1a2 2 0 0 0-2-2Zm6 2a6 6 0 0 0-6-6H9a6 6 0 0 0-6 6H2a2 2 0 0 0 0 4h26a2 2 0 0 0 0-4h-1Z" clip-rule="evenodd" opacity=".4"/></svg>