<svg width="72" height="41" fill="none" xmlns="http://www.w3.org/2000/svg"><path fill-rule="evenodd" clip-rule="evenodd" d="M10.068 8.768c.958-1.266 2.003-2.647 3.056-3.83.693-.78 1.345-1.421 1.927-1.858.619-.465.982-.564 1.125-.564h26.213l.072.04c.162.096.388.256.677.492.574.468 1.288 1.143 2.062 1.933.155.159.312.321.47.487a19.18 19.18 0 012.586-.947 58.365 58.365 0 00-1.219-1.287c-.803-.82-1.592-1.57-2.272-2.124a8.33 8.33 0 00-.993-.713C43.512.244 43.055 0 42.537 0H16.176c-1.003 0-1.93.52-2.672 1.078-.779.585-1.56 1.369-2.3 2.2-1.126 1.267-2.26 2.767-3.229 4.047l-.458.605H3.569c-1.509 0-2.74.694-3.09 1.904a2.05 2.05 0 00.254 1.723c.373.553.996.871 1.69.871h.297c-.54.301-1.01.706-1.391 1.157C.524 14.533 0 15.805 0 17.117v14.868c0 1.277.653 2.151 1.454 2.65.733.456 1.56.59 2.115.59h8.023c1.24 0 1.853-.937 2.097-1.523.255-.613.325-1.284.325-1.717H11.46c0 .1-.009.238-.033.387a1.86 1.86 0 01-.086.338H3.57c-.209 0-.528-.064-.751-.202a.55.55 0 01-.19-.181.642.642 0 01-.075-.342V17.117c0-.67.278-1.38.734-1.919.46-.543.99-.787 1.428-.787.364 0 .904-.086 1.398-.393a2.136 2.136 0 001.024-1.857c0-.508-.159-1.044-.594-1.468a2.072 2.072 0 00-.31-.247h2.553l.383-.497c.289-.375.59-.772.899-1.18zm-7.173 1.836c-.001 0 .003-.007.014-.018-.008.014-.013.02-.014.018z" fill="#7CB9FF"/><path fill-rule="evenodd" clip-rule="evenodd" d="M38.832 10.643c-7.833.186-17.803.049-25.193-.574l-.217 2.507c6.888.58 15.993.747 23.609.62a18.934 18.934 0 011.801-2.553zM34.561 20.71h-.824l-1.827 1.538-1.826-1.538h-10.81v2.516h9.868l2.768 2.332 2.566-2.161a18.928 18.928 0 01.085-2.687zM8.78 18.378l8.041.968.31-2.498-8.041-.968-.31 2.498zm27.228 11.708c-8.792.418-17.005-.377-26.814-2.382l-.518 2.464c10.461 2.138 19.18 2.927 28.624 2.368a18.72 18.72 0 01-1.292-2.45z" fill="#0D66CC"/><path d="M70.2 39l-7.658-7.548" stroke="#7CB9FF" stroke-width="3" stroke-linecap="round"/><path d="M66.147 21.387c0 7.489-6.165 13.597-13.817 13.597-7.65 0-13.816-6.108-13.816-13.597S44.68 7.79 52.33 7.79c7.652 0 13.817 6.108 13.817 13.597z" stroke="#7CB9FF" stroke-width="3"/><path d="M44.672 20.129c0-3.474 2.858-6.29 6.382-6.29" stroke="#7CB9FF" stroke-width="4" stroke-linecap="square"/></svg>