<svg width="93" height="65" fill="none" xmlns="http://www.w3.org/2000/svg"><path fill-rule="evenodd" clip-rule="evenodd" d="M83 30.215h-6.312v31.656h-8.13V35.107h-37.84v13.764l-8.131-.5V30.174H16l4.4-3.484L48.437 4.958l1.315-1.087 28.742 23.143L83 30.215zm-2.695-5.594L49.727 0l-3.165 2.615-28.014 21.713-11.163 8.847h12.202v14.697l14.13 2V38.108h31.84V64.87h14.131V33.215h12.717l-12.1-8.594z" fill="#7CB9FF"/><path d="M8 51c4.5.167 14.7 2 17.5 2 2.8 0 9.333-.833 11.5-1" stroke="#2158F5"/><path d="M39.417 51.97c0 .408 1.433.73 2.75.918 2.139.305 4.889 0 7.638 1.222" stroke="#D8E2E9" stroke-width=".25" stroke-linecap="round"/><path d="M24.14 47.082l.306.611c1.034 2.069 2.14 10.692.917 13.139-.306.61-.611.916-.611.916" stroke="#0D66CC" stroke-width=".25"/><path d="M1.01 56.54a2.103 2.103 0 00-.003.017l-.001.045c-.002.13 0 .205.01.273.008.056.023.11.053.17l.006.01.036.065a22.671 22.671 0 00.563.965c.169.272.34.531.489.728.053.07.097.124.133.164l.023.005c.115.022.272.046.466.072.385.05.87.1 1.362.145.98.09 1.949.155 2.113.166l.03.002.029.003c1.3.164 2.61.418 3.878.665l.527.102c1.438.277 2.82.527 4.164.638 9.822.264 18.923.226 26.931-.269h.024l8.469-.32c.332-.038.93-.11 1.478-.196.286-.044.544-.09.738-.135.054-.012.098-.023.133-.033a6.878 6.878 0 00.452-.599 6.64 6.64 0 00.303-.488 2.186 2.186 0 00.082-.161 4.56 4.56 0 00.057-.992l-.003-.067.005-.068c.023-.281.093-.69.18-1.071.029-.127.063-.266.102-.406-.386-.303-.895-.604-1.525-.893-.89-.408-1.962-.766-3.146-1.069-2.365-.605-5.09-.967-7.491-1.08-.313-.012-.71-.011-1.105-.01H40.3c-.233 0-.461-.001-.647-.007a5.197 5.197 0 01-.27-.014 1.623 1.623 0 01-.344-.063l-.09-.028-.084-.045-.968-.526c-3.182-1.735-6.35-3.462-10.864-4.157-4.587-.386-6.943-.197-10.417.287h-.002c-1.445.198-4.236.933-6.767 1.646-1.25.353-2.415.694-3.286.95l-.237.07a230.871 230.871 0 01-1.146.333l-.01.003c-.048.013-.159.044-.25.058h0a9.691 9.691 0 01-.453.036l-.14.01c-.302.022-.698.05-1.096.082-.294.023-.587.048-.843.072a1.612 1.612 0 01-.24.601 10.442 10.442 0 00-.187.57 47.13 47.13 0 00-.45 1.627 52.65 52.65 0 00-.395 1.615c-.05.22-.084.39-.103.501zm1.352 2.507a.053.053 0 000 0zm-.671-7.342a.225.225 0 00.005-.002l-.005.002zm51.065 8.087a.11.11 0 000 0zm.751-1.24v0z" stroke="#0D66CC" stroke-width="2"/><path opacity=".2" d="M.378 56.756a.125.125 0 10-.139.208l.139-.208zm1.764 1.326l-.07.104.027.018.032.002.01-.124zM.239 56.964l1.834 1.222.138-.208-1.833-1.222-.139.208zm1.892 1.242l3.667.306.02-.25-3.666-.305-.02.25z" fill="#3E6C93"/><path d="M15.582 60.621H38.8c0-.61-.301-5.5 4.282-6.416" stroke="#0D66CC" stroke-width=".5" stroke-linecap="round"/><path d="M11.128 63.261a4.015 4.015 0 100-8.03 4.015 4.015 0 000 8.03z" fill="#C5E4FF"/><path d="M11.129 63.738a4.474 4.474 0 114.473-4.492 4.473 4.473 0 01-1.31 3.163 4.491 4.491 0 01-3.163 1.33zm0-8.067a3.556 3.556 0 103.538 3.594 3.575 3.575 0 00-1.047-2.51c-.666-.666-1.55-1.079-2.491-1.084z" fill="#0D66CC"/><path d="M44.072 63.261a4.015 4.015 0 100-8.03 4.015 4.015 0 000 8.03z" fill="#C5E4FF"/><path d="M44.072 63.738a4.473 4.473 0 114.473-4.492 4.472 4.472 0 01-4.491 4.474l.018.018zm0-8.066a3.557 3.557 0 103.557 3.575 3.575 3.575 0 00-3.575-3.557l.018-.018z" fill="#0D66CC"/><path d="M44.073 61.538a2.292 2.292 0 100-4.583 2.292 2.292 0 000 4.583z" fill="#3E6C93"/><path d="M41.764 59.247a2.291 2.291 0 111.411 2.126 2.273 2.273 0 01-1.118-1.026m-30.928 1.191a2.292 2.292 0 100-4.583 2.292 2.292 0 000 4.583z" fill="#0D66CC"/><circle r=".25" transform="scale(-1 1) rotate(15 -232.252 -11.924)" fill="#C5E4FF" stroke="#3E6C93" stroke-width=".5" stroke-dasharray="0.25 0.25"/><path fill="#7CB9FF" d="M31 39.871h37v3H31zm0 5h37v3H31z"/><rect x="45.5" y="21.372" width="8" height="3" rx="1.5" stroke="#7CB9FF" stroke-width="3"/></svg>