<svg xmlns="http://www.w3.org/2000/svg" width="28" height="41" fill="none" viewBox="0 0 28 41"><path fill="#3CDFCD" fill-rule="evenodd" d="M15.254 1.66l-4.498 8.068-7.89 5.337L0 7.14 5.571.71 11.84.638 9.466 4.75H4.23L1.849 7.497l1.822 5.038 5.878-3.978L14.321 0h12.92l.738 1.66H15.254zm12.062 3.315H15.682l.928-1.66h11.314l-.608 1.66zm-2.082 5.267l1.095 4.67-2.569 1.41-.04.021.763 6.282-2.688-.53-.848-5.836-.007-.047-7.354-1.56-2.316-2.454 4.612-1.956h9.352zm-18.343 9.6l1.758.856v1.525l-6.04 4.93v-2.31l4.282-3.495v-1.506zm13.675 18.172l3.395-2.771v-8.01l1.77 1.67V36.107l-3.407 2.782-.006 1.524h-1.752v-2.399zm-8.417-15.61l-1.758-.855v1.6l-7.568 6.178v3.485l1.758.86v-3.47l7.568-6.178v-1.62zm1.612-1.443l4.883 1.16v-3.677l-5.657-.072.774 2.59zm12.749-1.75l-.246 2.016-.815.524-.208-2.52 1.269-.02zm-10.843 4.9l-1.758-.855v1.4L6.34 30.834v3.694l1.758.859v-3.679l7.568-6.177v-1.42zM25.73 40.414h-1.695V40.2l1.695-1.384v1.597zm-7.154-10.408l-5.168 4.22v3.76l1.757.86v-3.746l3.41-2.784v-2.31zm3.527-1.439v5.625l-3.485 2.845v3.376l-1.758-.836V36.16l3.485-2.845v-4.752h.002v-.075l1.756-1.503v1.58zm-2.05-4.56L9.81 32.368v3.857l1.758.86v-3.843l9.097-7.425h3.932l.046.044.014-.015 2.244 2.117v-2.389L25.3 24.006h-5.247zM14.751 6.64l-.928 1.66H26.1l.608-1.66H14.752z" clip-rule="evenodd"></path></svg>