<svg id="car-svgrepo-com_3_" data-name="car-svgrepo-com (3)" xmlns="http://www.w3.org/2000/svg" width="28" height="28" viewBox="0 0 28 28">
  <path id="Path_31" data-name="Path 31" d="M9.029,6,5.588,10.588H3.294A2.286,2.286,0,0,0,1,12.882v3.441H3.294a3.441,3.441,0,0,0,6.882,0h6.882a3.441,3.441,0,0,0,6.882,0h2.294V12.882a2.286,2.286,0,0,0-2.294-2.294L20.5,6H9.029m6.309,1.721h4.3l2.168,2.868H15.338V7.721m-1.721,0v2.868h-5.9L9.89,7.721h3.728M20.5,14.6a1.721,1.721,0,1,1-1.721,1.721A1.718,1.718,0,0,1,20.5,14.6m-13.764,0a1.721,1.721,0,1,1-1.721,1.721A1.718,1.718,0,0,1,6.735,14.6Z" transform="translate(0.147 0.882)" fill="#242424"/>
  <rect id="Rectangle_59" data-name="Rectangle 59" width="28" height="28" fill="none"/>
</svg>
