<svg xmlns="http://www.w3.org/2000/svg" width="22.072" height="19.842" viewBox="0 0 22.072 19.842">
  <g id="camera-svgrepo-com_8_" data-name="camera-svgrepo-com (8)" transform="translate(1 1)">
    <path id="Path_29" data-name="Path 29" d="M12.345,16.691A3.345,3.345,0,1,0,9,13.345,3.345,3.345,0,0,0,12.345,16.691Z" transform="translate(-2.309 -3.309)" fill="none" stroke="#121212" stroke-linecap="round" stroke-linejoin="round" stroke-width="2"/>
    <path id="Path_30" data-name="Path 30" d="M3,18.274V9.8a5.541,5.541,0,0,1,.243-2.351,2.23,2.23,0,0,1,.975-.975A5.541,5.541,0,0,1,6.568,6.23H7.744a2.5,2.5,0,0,0,.269-.007,1.115,1.115,0,0,0,.807-.5,2.5,2.5,0,0,0,.127-.237A5.008,5.008,0,0,1,9.2,5.012a2.23,2.23,0,0,1,1.615-1A5.008,5.008,0,0,1,11.353,4h3.366a5.008,5.008,0,0,1,.538.014,2.23,2.23,0,0,1,1.615,1,5.036,5.036,0,0,1,.253.474,2.478,2.478,0,0,0,.127.237,1.115,1.115,0,0,0,.807.5,2.505,2.505,0,0,0,.269.007H19.5a5.541,5.541,0,0,1,2.351.243,2.23,2.23,0,0,1,.975.975A5.54,5.54,0,0,1,23.072,9.8v8.475a5.541,5.541,0,0,1-.243,2.351,2.23,2.23,0,0,1-.975.975,5.541,5.541,0,0,1-2.351.243H6.568A5.54,5.54,0,0,1,4.218,21.6a2.23,2.23,0,0,1-.975-.975A5.541,5.541,0,0,1,3,18.274Z" transform="translate(-3 -4)" fill="none" stroke="#121212" stroke-linecap="round" stroke-linejoin="round" stroke-width="2"/>
  </g>
</svg>
