<svg xmlns="http://www.w3.org/2000/svg" width="16.899" height="20.279" viewBox="0 0 16.899 20.279">
  <g id="safety-seat-car-svgrepo-com" transform="translate(-42.676)">
    <g id="Group_84" data-name="Group 84" transform="translate(42.676)">
      <g id="Group_83" data-name="Group 83" transform="translate(0)">
        <path id="Path_32" data-name="Path 32" d="M153.935,171.617a1.139,1.139,0,0,0-.819-.846,8.611,8.611,0,0,0-2.172-.245c-.121,0-.2,0-.214,0l-.094,0-.114,0c-.015,0-.095,0-.22,0a8.608,8.608,0,0,0-2.172.245,1.139,1.139,0,0,0-.819.846l-.99,4.21a1.494,1.494,0,0,0-.026.58c.017.107.035.21.055.308a1.131,1.131,0,0,0,1.231.891v-.99a.338.338,0,0,1,.676,0v.88c.227-.037.452-.069.676-.1v-1.122a.338.338,0,1,1,.676,0v1.057q.342-.025.676-.034v-1.361a.338.338,0,1,1,.676,0V177.3q.335.009.676.034v-1.057a.338.338,0,1,1,.676,0V177.4c.224.027.449.058.676.1v-.879a.338.338,0,0,1,.676,0v.99a1.132,1.132,0,0,0,1.232-.891c.019-.1.038-.2.055-.307a1.511,1.511,0,0,0-.026-.58Z" transform="translate(-142.174 -163.772)"/>
        <path id="Path_33" data-name="Path 33" d="M92.056,13.057a4.2,4.2,0,0,0-.065-1.621l-1.2-5.114c-.378-1.213-1.731-1.783-3.027-2.047V3.38h.951a1.084,1.084,0,0,0,1.015-1.465L89.272.7A1.089,1.089,0,0,0,88.257,0h-6.4A1.09,1.09,0,0,0,80.84.7l-.454,1.211A1.085,1.085,0,0,0,81.4,3.38h.951v.9c-1.3.268-2.653.843-3.033,2.066l-1.2,5.091a4.194,4.194,0,0,0-.064,1.621C78.448,15.535,79.493,16.9,81,16.9h.059l.056-.02a12.169,12.169,0,0,1,7.881,0l.056.02h.059C90.619,16.9,91.664,15.535,92.056,13.057ZM83.028,3.38h4.056v.781a19.552,19.552,0,0,0-4.056,0Zm7.024,9.361c-.019.118-.039.229-.06.335a1.81,1.81,0,0,1-1.774,1.446,1.832,1.832,0,0,1-.358-.036,13.661,13.661,0,0,0-5.606,0,1.81,1.81,0,0,1-2.133-1.411c-.021-.106-.041-.217-.059-.335a2.176,2.176,0,0,1,.035-.84l.991-4.21a1.813,1.813,0,0,1,1.3-1.345,9.267,9.267,0,0,1,2.344-.267c.14,0,.229,0,.247,0l.088,0,.063,0c.011,0,.1,0,.244,0a9.274,9.274,0,0,1,2.344.267,1.814,1.814,0,0,1,1.3,1.345l.991,4.209A2.187,2.187,0,0,1,90.052,12.741Z" transform="translate(-76.607)"/>
        <path id="Path_34" data-name="Path 34" d="M43.946,379.962a2.048,2.048,0,0,0-.708.426,1.886,1.886,0,0,0-.562,1.443c0,.032.223,3.177,4.055,3.353v-2.716A3.41,3.41,0,0,1,43.946,379.962Z" transform="translate(-42.676 -364.912)"/>
        <path id="Path_35" data-name="Path 35" d="M165.84,426.664a12.451,12.451,0,0,0-3.711.616l-.006,0v2.762h7.436v-2.762l-.007,0A12.462,12.462,0,0,0,165.84,426.664Z" transform="translate(-157.391 -409.765)"/>
        <path id="Path_36" data-name="Path 36" d="M370.415,380.388a2.049,2.049,0,0,0-.708-.426,3.41,3.41,0,0,1-2.785,2.5v2.716c3.832-.176,4.053-3.32,4.056-3.371A1.876,1.876,0,0,0,370.415,380.388Z" transform="translate(-354.079 -364.912)"/>
      </g>
    </g>
  </g>
</svg>
