<svg xmlns="http://www.w3.org/2000/svg" enable-background="new 0 0 100 100" viewBox="0 0 100 100"><path d="M21.2,51.8c0.1,0,0.1,0,0.2,0.1c0.1,0,0.1,0,0.2,0.1c0.1,0,0.3,0,0.4,0h61c1.1,0,2-0.9,2-2V22c0-1.1-0.9-2-2-2H51
	c0,0,0,0,0,0h0c0,0-0.1,0-0.1,0c-0.1,0-0.2,0-0.3,0c-0.1,0-0.1,0-0.2,0c-0.1,0-0.1,0-0.2,0.1c-0.1,0-0.1,0.1-0.2,0.1
	c-0.1,0-0.1,0.1-0.2,0.1c-0.1,0-0.1,0.1-0.2,0.1c0,0-0.1,0.1-0.1,0.1l-29,28c0,0,0,0,0,0c-0.1,0.1-0.1,0.1-0.2,0.2
	c0,0-0.1,0.1-0.1,0.1c0,0.1-0.1,0.1-0.1,0.2c0,0,0,0.1-0.1,0.1c0,0.1,0,0.1-0.1,0.2c0,0.1-0.1,0.1-0.1,0.2c0,0,0,0.1,0,0.1
	c0,0.1,0,0.2,0,0.3c0,0,0,0,0,0c0,0,0,0.1,0,0.1c0,0.1,0,0.2,0,0.2c0,0.1,0,0.1,0,0.2c0,0.1,0,0.1,0.1,0.2c0,0.1,0.1,0.1,0.1,0.2
	c0,0.1,0.1,0.1,0.1,0.2c0,0.1,0.1,0.1,0.1,0.2c0,0,0.1,0.1,0.1,0.1c0,0,0,0,0,0c0.1,0.1,0.1,0.1,0.2,0.2c0,0,0.1,0.1,0.1,0.1
	C21,51.7,21.1,51.8,21.2,51.8z M51.8,24H81v24H46V29.6L51.8,24z M42,48H27l15-14.5V48z M81,60c0,1.1-0.9,2-2,2H69c-1.1,0-2-0.9-2-2
	s0.9-2,2-2h10C80.1,58,81,58.9,81,60z M93,9H47c-0.5,0-1,0.2-1.4,0.6l-40,39C5.2,48.9,5,49.5,5,50v11c0,1.1,0.9,2,2,2
	c16.1,0,30.1,10.9,34,26.5c0.2,0.9,1,1.5,1.9,1.5H93c1.1,0,2-0.9,2-2V11C95,9.9,94.1,9,93,9z M9,59.1v-8.2L47.8,13H91v64H39.9
	C33.2,66.6,21.8,59.7,9,59.1z M44.4,87c-0.6-2.1-1.4-4.1-2.3-6H91v6H44.4z"/></svg>