<svg xmlns="http://www.w3.org/2000/svg" width="23.932" height="27.805" viewBox="0 0 23.932 27.805">
  <g id="filter" transform="translate(615.715 -150.481)">
    <path id="Path_136" data-name="Path 136" d="M-464.833,156.5a3.063,3.063,0,0,0-2.189-2.547.419.419,0,0,1-.342-.493c.014-.736.007-1.472,0-2.209,0-.469-.259-.77-.648-.769s-.651.3-.653.764c0,.747-.014,1.5.006,2.242.007.272-.075.376-.339.46a3.194,3.194,0,0,0-2.246,3.043,3.193,3.193,0,0,0,2.195,3.082c.328.1.39.245.389.552q-.013,7.3-.006,14.59c0,.915.008,1.83-.006,2.744,0,.239.072.313.3.294a3.645,3.645,0,0,1,.668,0c.285.03.346-.081.345-.353-.01-2.889-.006-5.778-.007-8.667q0-4.367-.006-8.734c0-.228.053-.332.288-.389a2.58,2.58,0,0,0,.98-.491A3.119,3.119,0,0,0-464.833,156.5Zm-3.221,2.441a1.919,1.919,0,0,1-1.883-1.977,1.924,1.924,0,0,1,1.986-1.876,1.927,1.927,0,0,1,1.868,1.962A1.921,1.921,0,0,1-468.054,158.94Z" transform="translate(-135.738)" fill="#141414"/>
    <path id="Path_137" data-name="Path 137" d="M-612.556,162.836a.335.335,0,0,1-.288-.393c.009-1.862.005-3.724.005-5.586h0q0-1.488,0-2.977c0-.9.005-1.806,0-2.709a.639.639,0,0,0-.64-.671.646.646,0,0,0-.648.663c-.005.122,0,.245,0,.368q0,5.419,0,10.837c0,.267-.053.4-.342.49a3.172,3.172,0,0,0-2.242,3.106A3.185,3.185,0,0,0-614.422,169c.25.074.292.2.291.428q-.01,3.947,0,7.894c0,.3-.1.694.052.872.177.209.588.029.892.075s.356-.1.355-.372c-.009-2.832,0-5.664-.01-8.5,0-.225.054-.328.284-.4a3.188,3.188,0,0,0,2.3-3.1A3.2,3.2,0,0,0-612.556,162.836Zm-.915,5.011a1.923,1.923,0,0,1-1.942-1.918,1.925,1.925,0,0,1,1.927-1.935,1.922,1.922,0,0,1,1.923,1.937A1.914,1.914,0,0,1-613.471,167.847Z" transform="translate(1 -0.018)" fill="#141414"/>
    <path id="Path_138" data-name="Path 138" d="M-321.574,168.749c-.3-.1-.354-.236-.353-.517q.012-8.379.005-16.758a3.332,3.332,0,0,0-.012-.434.6.6,0,0,0-.455-.521.617.617,0,0,0-.666.195.841.841,0,0,0-.161.629q0,5.787,0,11.573c0,1.773-.007,3.546.005,5.318,0,.283-.047.436-.355.517a2.8,2.8,0,0,0-1.156.651,3.24,3.24,0,0,0,1.224,5.51.34.34,0,0,1,.285.4c-.015.646-.007,1.293,0,1.94,0,.321-.109.749.053.936.189.218.629.038.958.076.25.029.29-.086.287-.306-.011-.87,0-1.739-.01-2.609,0-.247.052-.368.313-.445a3.077,3.077,0,0,0,1.833-1.467,3.562,3.562,0,0,0,.33-.811A3.189,3.189,0,0,0-321.574,168.749Zm-.986,4.986a1.91,1.91,0,0,1-1.932-1.923,1.9,1.9,0,0,1,1.932-1.919,1.9,1.9,0,0,1,1.918,1.935A1.921,1.921,0,0,1-322.56,173.736Z" transform="translate(-272.443 -0.008)" fill="#141414"/>
  </g>
</svg>
