<svg fill="none" height="21" viewBox="0 0 18 21" width="18" xmlns="http://www.w3.org/2000/svg"><path d="m16.0288 7.3509c.4982-.04248.4982-.04256.4982-.04265v-.00023l-.0001-.00059-.0001-.00177-.0006-.00585-.0019-.02076c-.0017-.01777-.0042-.04329-.0077-.07586-.0069-.06511-.0175-.15852-.0328-.27453-.0304-.23172-.0793-.5552-.1534-.92455-.1458-.72673-.3969-1.671-.8206-2.44085-.0822-.15923-.1866-.31225-.2712-.43627l-.0063-.0093c-.1879-.28473-.4786-.61746-.784-.94271.0485.03186.0976.06497.1474.09935.7472.51583 1.6045 1.29849 2.1253 2.38767l.0055.01139.006.01109c.1679.30994.3392.93793.431 1.36415l.0032.01464.004.01443c.0036.0127.0072.02552.0108.03842.0366.13027.0758.26976.0869.4003.0032.03712.003.06424.0019.08275-.2524.19933-.4193.42103-.4889.73185-.0312.13927-.039.27999-.0413.41033-.0014.07894-.0008.17206-.0002.26831.0004.05565.0008.11234.0008.16794v.00832l.0003.00832.2512 7.54316c-.0043 1.0055-.8425 1.8382-1.9009 1.8382-1.061 0-1.9009-.8371-1.9009-1.846v-2.6365-3.23976-.00079-.00078-.00079-.00078-.00079-.00078-.00079-.00078-.00079-.00078-.00079-.00078-.00079-.00078-.00079-.00078-.00079-.00078-.00079-.00078-.00079-.00078-.00078-.00079-.00078-.00079-.00078-.00078-.00079-.00078-.00078-.00078-.00079-.00078-.00078-.00078-.00078-.00078-.00079-.00078-.00078-.00078-.00078-.00078-.00078-.00078-.00077-.00078-.00078-.00078-.00078-.00078-.00077-.00078-.00078-.00077-.00078-.00077-.00078-.00077-.00078-.00077-.00078-.00077-.00077-.00078-.00077-.00077-.00077-.00077-.00077-.00077-.00077-.00077-.00077-.00077-.00077-.00077-.00076-.00077-.00076-.00077-.00077-.00076-.00076-.00077-.00076-.00076-.00077-.00076-.00076-.00076-.00076-.00076-.00076-.00075-.00076-.00076-.00076-.00075-.00076-.00075-.00076-.00075-.00075-.00075-.00076-.00075-.00075-.00075-.00074-.00075-.00075-.00075-.00074-.00075-.00074-.00075-.00074-.00074-.00075-.00074-.00074-.00074-.00074-.00074-.00073-.00074-.00074-.00073-.00074-.00073-.00073-.00073-.00074-.00073-.00073-.00072-.00073-.00073-.00073-.00072-.00073-.00072-.00072-.00072-.00073-.00072-.00072-.00072-.00071-.00072-.00071-.00072-.00071-.00072-.00071-.00071-.00071-.00071-.00071-.00071-.0007-.00071-.0007-.0007-.00071-.0007-.0007-.0007-.0007-.00069-.0007-.0007-.00069-.00069-.0007-.00069-.00069-.00069-.00068-.00069-.00069-.00068-.00068-.00069-.00068-.00068-.00068-.00067-.00068-.00068-.00067-.00068-.00067-.00067-.00067-.00067-.00066-.00067-.00067-.00066-.00066-.00066-.00066-.00066-.00066-.00066-.00065-.00066-.00065-.00065-.00065-.00065-.00065-.00064-.00065-.00064-.00065-.00064-.00064-.00063-.00064-.00064-.00063-.00063-.00064-.00063-.00063-.00062-.00063-.00063-.00062-.00062-.00062-.00062-.00062-.00062-.00061-.00061-.00062-.00061-.00061-.0006-.00061-.00061-.0006-.0006-.0006-.0006-.0006-.00059-.0006-.00059-.00059-.00059-.00059-.00059-.00058-.00059-.00058-.00058-.00058-.00058-.00057-.00058-.00057-.00057-.00057-.00057-.00056-.00057-.00056-.00056-.00056-.00056-.00056-.00055-.00055-.00056-.00055-.00054-.00055-.00054-.00055-.00054-.00054-.00054-.00053-.00054-.00053-.00053-.00053-.00053-.00052-.00053-.00052-.00052-.00052-.00051-.00052-.00051-.00051-.00051-.00051-.00051-.0005-.0005-.0005-.0005-.0005-.00049-.0005-.00049-.00049-.00048-.00049-.00048-.00048-.00048-.00048-.00048-.00047-.00047-.00047-.00047-.00047-.00046-.00046-.00046-.00046-.00046-.00045-.00045-.00045-.00045-.00045-.00044-.00044-.00044-.00044-.00044-.00043-.00043-.00043-.00043-.00043-.00042-.00042-.00042-.00042-.00042-.00041-.00041-.00041-.00041-.0004-.0004-.0004-.0004-.0004-.00039-.00039-.00039-.00039-.00039-.00038-.00038-.00038-.00037-.00038-.00037-.00037-.00037-.00036-.00037-.00036-.00036-.00035-.00036-.00035-.00035-.00034-.00035-.00034-.00034-.00034-.00033-.00034-.00033-.00033-.00032-.00033-.00032-.00032-.00031-.00032-.00031-.00031-.00031-.0003-.00031-.0003-.00029-.0003-.00029-.00029-.00029-.00029-.00028-.00028-.00028-.00027-.00028-.00027-.00026-.00027-.00026-.00026-.00026-.00026-.00025-.00025-.00025-.00024-.00025-.00024-.00024-.00023-.00023-.00023-.00023-.00023-.00022-.00022-.00022-.00021-.00021-.00021-.00021-.0002-.00021-.00019-.0002-.00019-.00019-.00019-.00019-.00018-.00018-.00018-.00017-.00017-.00017-.00017-.00016-.00017-.00015-.00016-.00015-.00015-.00015-.00014-.00015-.00013-.00014-.00013-.00013-.00013-.00013-.00012-.00012-.00012-.00011-.00011-.00011-.0001-.0001-.00011-.00009-.00009-.0001-.00008-.00009-.00008-.00008-.00008-.00007-.00007-.00007-.00006-.00006-.00006-.00006-.00005-.00005-.00005-.00004-.00004-.00004-.00004-.00003-.00003-.00002-.00003-.00001-.00002-.00001-.00002-.00001-.02826l-.0032-.02807c-.0543-.47907-.4973-.8235-.9541-.8235-.1635 0-.356.0384-.5244.14809l-.0411.02678-.0352.03426-.0686.06711-.0004.00032c-.1925.18825-.2876.43106-.2876.69264v8.91491.5h.5.5976v.5194h-11.8734v-.5194h.59755.5v-.5-17.941548c0-.07051.06244-.147952.16311-.147952h9.37494c.1006 0 .1631.077457.1631.147952v5.518768 1.69808.70409l.6648-.23202c.2055-.07172.4172-.05748.5635-.0146l-.0001.00018.0135.00354c.239.06288.4603.17208.6204.33955.15.15698.2774.3967.2873.79151v6.29485c0 .9249.7963 1.6395 1.689 1.6395.9054 0 1.6661-.7269 1.6661-1.6395v-.3351-.0084l-.0003-.0084-.2515-7.48496-.0001-.00291-.0229-.58093-.0004-.0114-.001-.01138zm-6.19656.74578c.62086 0 1.09446-.49369 1.09446-1.08092v-5.20596c0-.63438-.5218-1.08093-1.09446-1.08093h-6.83684c-.62081 0-1.0945.49366-1.0945 1.08093v5.20596c0 .63444.52198 1.08092 1.0945 1.08092z" stroke="#000"/></svg>