<svg fill="none" height="15" viewBox="0 0 18 15" width="18" xmlns="http://www.w3.org/2000/svg"><path d="m17.4706 5.35154h-4.3306l-1.4929-4.976411c-.035-.112752-.1059-.210642-.2016-.2784001-.0958-.0677577-.2111-.10157231-.3279-.09616878h-4.23525c-.1132-.00069284-.22364.03530998-.31512.10272488-.09147.067415-.15915.162691-.19311.271844l-1.51412 4.976411h-4.330588c-.140409 0-.275067.05638-.374351.15673-.0992837.10035-.155061.23645-.155061.37837 0 .14191.0557773.27802.155061.37837.099284.10035.233942.15673.374351.15673h1.588238v1.60529c0 .14192.05577.27802.15506.37837.09928.10035.23394.15673.37435.15673s.27507-.05638.37435-.15673.15506-.23645.15506-.37837v-1.60529h1.35529l-2.41411 7.86596c-.04072.1419-.02399.2943.0465.4238s.18897.2253.32938.2665c.14041.0411.29124.0242.41932-.047.12807-.0713.2229-.1911.26362-.333l2.46706-8.17626h6.71297l2.467 8.18696c.034.1092.1017.2045.1931.2719.0915.0674.202.1034.3152.1027h.1588c.1328-.042.244-.1351.3094-.2593s.0797-.2694.04-.4042l-2.3718-7.89806h1.3553v1.60529c0 .14192.0558.27802.1551.37837s.2339.15673.3743.15673c.1405 0 .2751-.05638.3744-.15673s.1551-.23645.1551-.37837v-1.60529h1.5882c.1404 0 .2751-.05638.3743-.15673.0993-.10035.1551-.23646.1551-.37837 0-.14192-.0558-.27802-.1551-.37837-.0992-.10035-.2339-.15673-.3743-.15673zm-11.49883 0 1.30235-4.28078h3.45178l1.3023 4.28078zm3.55764 3.21059v5.35097c0 .1419-.05577.278-.15506.3784-.09928.1003-.23394.1567-.37435.1567s-.27507-.0564-.37435-.1567c-.09928-.1004-.15506-.2365-.15506-.3784v-5.35097c0-.14192.05578-.27802.15506-.37837s.23394-.15673.37435-.15673.27507.05638.37435.15673c.09929.10035.15506.23645.15506.37837zm0-6.42118v1.6053c0 .14191-.05577.27802-.15506.37837-.09928.10035-.23394.15672-.37435.15672s-.27507-.05637-.37435-.15672-.15506-.23646-.15506-.37837v-1.6053c0-.14191.05578-.27802.15506-.37837s.23394-.15673.37435-.15673.27507.05638.37435.15673c.09929.10035.15506.23646.15506.37837z" fill="#000"/></svg>