<svg xmlns="http://www.w3.org/2000/svg" width="149" height="149" viewBox="0 0 149 149">
  <g id="Group_8665" data-name="Group 8665" transform="translate(-984 -466)">
    <circle id="Ellipse_14" data-name="Ellipse 14" cx="74.5" cy="74.5" r="74.5" transform="translate(984 466)" fill="#3cdfcd"/>
    <g id="Group_711" data-name="Group 711" transform="translate(838.377 1228.71)">
      <path id="Path_851" data-name="Path 851" d="M260.51-673.63a16.415,16.415,0,0,0-17.076-13.906c-.923.068-1.041-.181-1.038-.992.028-7.9.01-15.8.025-23.7a3.412,3.412,0,0,0-.73-2.329,3.625,3.625,0,0,0-3.018-1.152q-14.046,0-28.091,0-14.093,0-28.185,0c-2.592,0-3.771,1.177-3.772,3.733q0,17.288,0,34.576c0,2.459,1.185,3.649,3.638,3.649h44.424a5.313,5.313,0,0,0,.653,0c.47-.059.569.118.515.576a17.848,17.848,0,0,0,.156,5.082,16.536,16.536,0,0,0,19.354,13.053A16.346,16.346,0,0,0,260.51-673.63Zm-32.97-2.213q-22.579-.032-45.158-.017c-1.406,0-1.7-.284-1.7-1.683q0-17.143,0-34.286c0-1.487.3-1.769,1.827-1.769q14.041,0,28.083,0h27.8c1.741,0,1.931.19,1.931,1.914,0,7.9-.009,15.8.016,23.694,0,.669-.19.905-.845,1.11a16.1,16.1,0,0,0-10.786,10.193A1.05,1.05,0,0,1,227.54-675.844Zm16.721,19.011a14.4,14.4,0,0,1-14.421-14.335,14.354,14.354,0,0,1,14.34-14.3,14.4,14.4,0,0,1,14.442,14.313A14.45,14.45,0,0,1,244.261-656.833Z" transform="translate(0 0)" fill="#fff"/>
      <path id="Path_852" data-name="Path 852" d="M198.61-678.985c-3.526,0-7.054-.032-10.58.023-.875.014-.992-.322-.907-1.042a5.754,5.754,0,0,1,2.579-4.3,10.314,10.314,0,0,1,4-1.566,2.663,2.663,0,0,0,1.535-4.378,10.543,10.543,0,0,1-.946-1.4,3.362,3.362,0,0,0-.709-.983,1.8,1.8,0,0,1-.949-1.767c.069-.7-.125-1.418.32-2.083a2.8,2.8,0,0,0,.279-1.464,14.941,14.941,0,0,1,.36-2.894,3.851,3.851,0,0,1,3.274-3.1,9.675,9.675,0,0,1,3.662.035,3.855,3.855,0,0,1,3.31,3.6c.1.779.159,1.563.217,2.347a3.641,3.641,0,0,0,.546,1.865,2.9,2.9,0,0,1-.648,3.209,2.149,2.149,0,0,0-.7.864,7.874,7.874,0,0,1-1.236,1.886,2.61,2.61,0,0,0,1.433,4.244,12.015,12.015,0,0,1,4.027,1.519,6,6,0,0,1,2.753,4.8c.063.688-.354.593-.76.593Z" transform="translate(-2.069 -2.834)" fill="#fff"/>
      <path id="Path_853" data-name="Path 853" d="M233.112-698.525q-5.424,0-10.848,0a3.861,3.861,0,0,1-.844-.045.878.878,0,0,1-.72-.961.894.894,0,0,1,.717-.967,3.518,3.518,0,0,1,.844-.043q10.9,0,21.79,0c.188,0,.377,0,.565.005a.945.945,0,0,1,1.017,1,.945.945,0,0,1-1.014,1.008c-.816.02-1.634.006-2.452.006Z" transform="translate(-10.82 -3.893)" fill="#fff"/>
      <path id="Path_854" data-name="Path 854" d="M233.153-691.546c3.711,0,7.421.011,11.132-.01.719,0,1.311.151,1.347.948.04.864-.588,1.082-1.332,1.082q-11.18,0-22.359,0c-.71,0-1.249-.222-1.231-1.066.018-.806.539-.957,1.216-.955Q227.54-691.538,233.153-691.546Z" transform="translate(-10.822 -6.2)" fill="#fff"/>
      <path id="Path_855" data-name="Path 855" d="M233.12-680.609q-5.518,0-11.038,0c-.713,0-1.371-.038-1.37-.986,0-.918.636-1.036,1.355-1.036q11.086,0,22.17,0c1.1,0,1.635.588,1.333,1.381-.223.584-.686.641-1.224.64C240.6-680.614,236.862-680.609,233.12-680.609Z" transform="translate(-10.823 -8.492)" fill="#fff"/>
      <circle id="Ellipse_15" data-name="Ellipse 15" cx="15.317" cy="15.317" r="15.317" transform="translate(229.173 -686.278)" fill="#fff"/>
      <path id="Path_856" data-name="Path 856" d="M260.436-651.083a1.813,1.813,0,0,1-1.265-.545c-1.464-1.475-2.945-2.933-4.4-4.415a1.58,1.58,0,0,1-.118-2.345,1.525,1.525,0,0,1,2.325.138c.921.9,1.857,1.8,2.729,2.747.493.537.794.562,1.329.016,2.911-2.966,5.865-5.89,8.8-8.83a1.8,1.8,0,0,1,1.188-.689,1.537,1.537,0,0,1,1.51.767,1.486,1.486,0,0,1-.079,1.69,3.421,3.421,0,0,1-.447.485q-5.107,5.111-10.216,10.221A1.947,1.947,0,0,1,260.436-651.083Z" transform="translate(-19.34 -13.124)" fill="#3cdfcd"/>
    </g>
  </g>
</svg>
