<svg xmlns="http://www.w3.org/2000/svg" xmlns:xlink="http://www.w3.org/1999/xlink" width="91.776" height="72.381" viewBox="0 0 91.776 72.381">
  <defs>
    <linearGradient id="linear-gradient" x1="0.5" x2="0.5" y2="1" gradientUnits="objectBoundingBox">
      <stop offset="0" stop-color="#3cdfcd"/>
      <stop offset="1" stop-color="#545454"/>
    </linearGradient>
  </defs>
  <g id="id_card" data-name="id card" transform="translate(-7908.75 -3433.378)">
    <path id="Path_872" data-name="Path 872" d="M13.2,2.75H81.079A11.947,11.947,0,0,1,93.026,14.7V63.184A11.947,11.947,0,0,1,81.079,75.131H13.2A11.947,11.947,0,0,1,1.25,63.184V14.7A11.947,11.947,0,0,1,13.2,2.75ZM81.079,70.631a7.456,7.456,0,0,0,7.447-7.447V14.7A7.456,7.456,0,0,0,81.079,7.25H13.2A7.456,7.456,0,0,0,5.75,14.7V63.184A7.456,7.456,0,0,0,13.2,70.631Z" transform="translate(7907.5 3430.628)" fill="url(#linear-gradient)"/>
    <path id="Path_873" data-name="Path 873" d="M30.046,12.25H15.5a2.25,2.25,0,0,1,0-4.5H30.046a2.25,2.25,0,1,1,0,4.5Z" transform="translate(7953.684 3449.871)" fill="url(#linear-gradient)"/>
    <path id="Path_874" data-name="Path 874" d="M30.046,15.25H15.5a2.25,2.25,0,0,1,0-4.5H30.046a2.25,2.25,0,1,1,0,4.5Z" transform="translate(7953.684 3461.417)" fill="url(#linear-gradient)"/>
    <path id="Path_875" data-name="Path 875" d="M17.2,5.75a11.947,11.947,0,1,1-8.448,3.5A11.888,11.888,0,0,1,17.2,5.75Zm0,19.395A7.447,7.447,0,1,0,9.75,17.7,7.456,7.456,0,0,0,17.2,25.145Z" transform="translate(7922.895 3442.174)" fill="url(#linear-gradient)"/>
    <path id="Path_876" data-name="Path 876" d="M5.5,25.947A2.25,2.25,0,0,1,3.817,22.2a33.175,33.175,0,0,1,10.1-7.942,24,24,0,0,1,10.5-2.512,25.723,25.723,0,0,1,11.864,2.935,34.183,34.183,0,0,1,9.675,7.5,2.25,2.25,0,0,1-3.335,3.021c-5.185-5.725-11.811-8.989-18.181-8.957-6.217.032-12.023,3.04-17.258,8.94A2.245,2.245,0,0,1,5.5,25.947Z" transform="translate(7915.197 3465.266)" fill="url(#linear-gradient)"/>
  </g>
</svg>
