<svg xmlns="http://www.w3.org/2000/svg" width="47" height="42" viewBox="0 0 47 42">
  <g id="Group_3336" data-name="Group 3336" transform="translate(-713 -6015)">
    <rect id="Rectangle_148" data-name="Rectangle 148" width="47" height="42" rx="21" transform="translate(713 6015)" fill="#3cdfcd"/>
    <g id="instagram-svgrepo-com_3_" data-name="instagram-svgrepo-com (3)" transform="translate(725 6024)">
      <path id="Path_139" data-name="Path 139" d="M12,18a6,6,0,1,0-6-6A6,6,0,0,0,12,18Zm0-2a4,4,0,1,0-4-4A4,4,0,0,0,12,16Z" fill="#0f0f0f" fill-rule="evenodd"/>
      <path id="Path_140" data-name="Path 140" d="M18,5a1,1,0,1,0,1,1A1,1,0,0,0,18,5Z" fill="#0f0f0f"/>
      <path id="Path_141" data-name="Path 141" d="M1.654,4.276C1,5.56,1,7.24,1,10.6v2.8c0,3.36,0,5.041.654,6.324a6,6,0,0,0,2.622,2.622C5.56,23,7.24,23,10.6,23h2.8c3.36,0,5.041,0,6.324-.654a6,6,0,0,0,2.622-2.622C23,18.441,23,16.76,23,13.4V10.6c0-3.36,0-5.04-.654-6.324a6,6,0,0,0-2.622-2.622C18.441,1,16.76,1,13.4,1H10.6c-3.36,0-5.04,0-6.324.654A6,6,0,0,0,1.654,4.276ZM13.4,3H10.6c-1.713,0-2.878,0-3.778.075a4.317,4.317,0,0,0-1.638.361A4,4,0,0,0,3.436,5.184a4.317,4.317,0,0,0-.361,1.638C3,7.722,3,8.887,3,10.6v2.8c0,1.713,0,2.878.075,3.778a4.317,4.317,0,0,0,.361,1.638,4,4,0,0,0,1.748,1.748,4.315,4.315,0,0,0,1.638.361C7.722,21,8.887,21,10.6,21h2.8c1.713,0,2.878,0,3.778-.075a4.316,4.316,0,0,0,1.638-.361,4,4,0,0,0,1.748-1.748,4.316,4.316,0,0,0,.361-1.638C21,16.278,21,15.113,21,13.4V10.6c0-1.713,0-2.878-.075-3.778a4.315,4.315,0,0,0-.361-1.638,4,4,0,0,0-1.748-1.748,4.317,4.317,0,0,0-1.638-.361C16.278,3,15.113,3,13.4,3Z" fill="#0f0f0f" fill-rule="evenodd"/>
    </g>
  </g>
</svg>
