<svg xmlns="http://www.w3.org/2000/svg" width="43.165" height="34.996" viewBox="0 0 43.165 34.996">
  <g id="photo-the-most-beautiful-travel-map-svgrepo-com" transform="translate(-83 -179.4)">
    <path id="Path_36" data-name="Path 36" d="M124.423,186.86l-2.839-.763-.871-.231-3.189-.856V181.7a2.043,2.043,0,0,0-2.3-2.3H85.3a2.045,2.045,0,0,0-2.3,2.3v23.782a2.043,2.043,0,0,0,2.3,2.3h7.553l24.21,6.485a2.046,2.046,0,0,0,2.82-1.629l.792-2.962,5.359-20.008A2.03,2.03,0,0,0,124.423,186.86Zm-37.58,18.625a1.357,1.357,0,0,1-1.535-1.535V183.238a1.357,1.357,0,0,1,1.535-1.535h26.847a1.357,1.357,0,0,1,1.535,1.535v20.711a1.357,1.357,0,0,1-1.535,1.535Zm31.222,5.088a1.357,1.357,0,0,1-1.88,1.083l1.265.34-15.7-4.207h13.473a2.045,2.045,0,0,0,2.3-2.3V187.4l4.812,1.289a1.357,1.357,0,0,1,1.083,1.88l.4-1.481-.871-.236.871.236ZM92.212,185.541a3.071,3.071,0,1,0,3.071,3.071A3.071,3.071,0,0,0,92.212,185.541Z" fill="#3cdfcd"/>
    <path id="Path_37" data-name="Path 37" d="M127.907,395.588a1.2,1.2,0,0,1-.763-.271,1.209,1.209,0,0,1-.172-1.7l7.238-8.847a1.205,1.205,0,0,1,1.634-.217l4.635,3.312,6.545-9.453a1.207,1.207,0,0,1,2.022.054l8.847,14.482a1.206,1.206,0,0,1-2.057,1.26L147.954,381.3l-6.185,8.936a1.2,1.2,0,0,1-.787.5,1.227,1.227,0,0,1-.91-.207l-4.709-3.366-6.52,7.977A1.213,1.213,0,0,1,127.907,395.588Z" transform="translate(-41.551 -188.726)" fill="#3cdfcd"/>
  </g>
</svg>
