<svg fill="none" height="15" viewBox="0 0 24 15" width="24" xmlns="http://www.w3.org/2000/svg"><path d="m6.00085 4.23218c-.27614 0-.5.22386-.5.5s.22386.5.5.5zm12.00005 1c.2761 0 .5-.22386.5-.5s-.2239-.5-.5-.5zm-12.00005 0h.02325.02328.02331.02335.02337.02341.02344.02347.02351.02353.02357.02359.02363.02365.02369.02371.02375.02378.0238.02384.02386.02389.02392.02395.02398.024.02404.02406.02409.02411.02414.02417.0242.02422.02425.02428.0243.02433.02435.02438.02441.02442.02446.02448.0245.02453.02455.02458.0246.02462.02464.02467.0247.02471.02474.02476.02478.02481.02483.02484.02487.0249.02491.02493.02496.02497.025.02501.02504.02505.02508.02509.02512.02513.02515.02517.02519.02521.02522.02525.02526.02528.02529.02532.02533.02535.02536.02538.0254.02541.02543.02544.02546.02548.02549.0255.02552.02554.02555.02556.02558.02559.02561.02561.02564.02564.02566.02567.02568.0257.02571.02572.02573.02574.02575.02577.02578.02578.0258.02581.02582.02583.02584.02585.02585.02587.02588.02589.02589.0259.02591.02592.02593.02594.02594.02595.02596.02597.02597.02598.02598.02599.026.02601.02601.02601.02602.02603.02603.02604.02604.02604.02605.02605.02606.02606.02607.02607.02607.02608.0261.026.0261.0261.0261.0261.0261.0261.0261.0261.0261.026.0261.0261.0261.0261.0261.0261.0261.0261.0261.0261.0261.0261.0261.0261.026.0261.0261.0261.0261.026.0261.0261.026.0261.026.0261.026.0261.026.026.0261.026.026.026.026.026.026.026.026.0259.026.026.0259.026.0259.0259.0259.0259.0259.0259.0259.0259.0259.0258.0259.0258.0258.0259.0258.0258.0258.0257.0258.0257.0258.0257.0257.0257.0257.0257.0257.0257.0256.0256.0256.0257.0255.0256.0256.0255.0256.0255.0255.0255.0255.0254.0255.0254.0254.0254.0254.0253.0254.0253.0253.0253.0253.0253.0252.0252.0252.0252.0252.0251.0252.0251.0251.0251.025.025.0251.025.0249.025.0249.0249.0249.0249.0248.0249.0248.0247.0248.0247.0248.0246.0247.0247.0246.0246.0246.0245.0245.0245.0245.0245.0244.0244.0244.0243.0243.0244.0242.0243.0242.0242.0242.0241.0241.0241.0241.024.024.024.0239.0239.0239.0239.0238.0238.0238.0237.0238.0236.0237.0236.0236.0236.0235.0235.0235.0234.0234.0234.0234.0233.0232.0233.0232.0232.0231.0231.0231.0231.023.023.0229.0229.0229.0228.0228.0228.0227.0227.0227.0226.0226.0226.0225.0225.0224.0224.0224.0223.0223.0223.0222.0222.0221.0221.0221.022.022.022.0219.0218.0219.0218.0217.0217.0217.0216.0216.0215.0215.0215.0214.0214.0213.0213.0213.0212.0212.0211.0211.021.021.0209.0209.0209.0208.0208.0207.0207.0206.0206.0206.0205.0204.0204.0204.0203.0203.0202.0202.0201.0201.02.02.0199.0199.0199.0198.0197.0197.0196.0196.0196.0195.0194.0194.0194.0193.0192.0192.0192.0191.019.019.0189.0189.0189.0187.0188.0186.0187.0185.0186.0184.0184.0184.0183.0183.0182.0181.0181.018.018.0179.0179.0178.0177.0177.0177.0176.0175.0175.0174.0174.0173.0172.0172.0171.0171.017.017.0169.0168.0168.0167.0166.0166.0166.0165.0164.0163.0163.0163.0162.0161.016.016.016.0158.0158.0158.0157.0156.0156.0155v-1c-.0052 0-.0104 0-.0155 0-.0052 0-.0104 0-.0156 0s-.0104 0-.0156 0-.0105 0-.0157 0-.0105 0-.0158 0c-.0052 0-.0105 0-.0158 0-.0052 0-.0105 0-.0158 0s-.0106 0-.016 0c-.0053 0-.0106 0-.016 0-.0053 0-.0107 0-.016 0-.0054 0-.0108 0-.0161 0-.0054 0-.0108 0-.0162 0s-.0108 0-.0163 0c-.0054 0-.0108 0-.0163 0-.0054 0-.0108 0-.0163 0s-.0109 0-.0164 0-.011 0-.0165 0-.011 0-.0166 0c-.0055 0-.011 0-.0166 0-.0055 0-.0111 0-.0166 0-.0056 0-.0111 0-.0167 0s-.0112 0-.0168 0-.0112 0-.0168 0c-.0057 0-.0113 0-.0169 0-.0057 0-.0113 0-.017 0s-.0113 0-.017 0-.0114 0-.0171 0-.0114 0-.0171 0-.0115 0-.0172 0-.0115 0-.0172 0c-.0058 0-.0116 0-.0173 0-.0058 0-.0116 0-.0174 0s-.0116 0-.0174 0-.0117 0-.0175 0-.0117 0-.0175 0c-.0059 0-.0117 0-.0176 0s-.0118 0-.0177 0c-.0058 0-.0117 0-.0177 0-.0059 0-.0118 0-.0177 0s-.0119 0-.0178 0c-.006 0-.0119 0-.0179 0s-.0119 0-.0179 0-.012 0-.018 0-.012 0-.018 0-.0121 0-.0181 0-.0121 0-.0181 0c-.0061 0-.0122 0-.0182 0-.0061 0-.0122 0-.0183 0s-.0122 0-.0183 0-.0122 0-.0184 0c-.0061 0-.0122 0-.0184 0-.0061 0-.0123 0-.0184 0-.0062 0-.0124 0-.0186 0-.0061 0-.0123 0-.0185 0s-.0124 0-.0187 0c-.0062 0-.0124 0-.0186 0-.0063 0-.0125 0-.0188 0-.0062 0-.0125 0-.0187 0-.0063 0-.0126 0-.0189 0s-.0126 0-.0189 0-.0126 0-.0189 0-.0127 0-.019 0-.0127 0-.019 0c-.0064 0-.0128 0-.0191 0-.0064 0-.0128 0-.0192 0s-.0128 0-.0192 0-.0128 0-.0192 0-.0129 0-.0193 0c-.0065 0-.0129 0-.0194 0-.0064 0-.0129 0-.0194 0-.0064 0-.0129 0-.0194 0s-.013 0-.0195 0-.013 0-.0196 0c-.0065 0-.013 0-.0196 0-.0065 0-.013 0-.0196 0s-.0131 0-.0197 0-.0132 0-.0197 0c-.0066 0-.0132 0-.0198 0s-.0133 0-.0199 0-.0132 0-.0199 0c-.0066 0-.0132 0-.0199 0s-.0133 0-.02 0-.0133 0-.02 0-.0134 0-.0201 0-.0134 0-.0201 0-.0135 0-.0202 0-.0135 0-.0202 0c-.0068 0-.0135 0-.0203 0s-.0135 0-.0203 0-.0136 0-.0204 0-.0136 0-.0204 0-.0136 0-.0204 0c-.0069 0-.0137 0-.0205 0-.0069 0-.0137 0-.0206 0-.0068 0-.0137 0-.0206 0-.0068 0-.0137 0-.0206 0s-.0138 0-.0207 0-.0138 0-.0207 0-.0139 0-.0208 0-.0139 0-.0208 0-.0139 0-.0209 0c-.0069 0-.0139 0-.0209 0-.0069 0-.0139 0-.0209 0s-.014 0-.021 0-.014 0-.021 0c-.0071 0-.0141 0-.0211 0-.0071 0-.0141 0-.0211 0-.0071 0-.0141 0-.0212 0s-.0141 0-.0212 0-.0142 0-.0213 0-.0142 0-.0213 0-.0142 0-.0213 0-.0142 0-.0214 0c-.0071 0-.0143 0-.0214 0s-.0143 0-.0215 0c-.0071 0-.0143 0-.0215 0-.0071 0-.0143 0-.0215 0s-.0144 0-.0216 0-.0144 0-.0216 0-.0145 0-.0217 0-.0145 0-.0217 0-.0145 0-.0217 0c-.0073 0-.0146 0-.0218 0-.0073 0-.0146 0-.0219 0-.0072 0-.0145 0-.0218 0s-.0146 0-.0219 0c-.0074 0-.0147 0-.022 0s-.0146 0-.022 0c-.0073 0-.0147 0-.022 0-.0074 0-.0147 0-.0221 0-.0073 0-.0147 0-.0221 0s-.0147 0-.0221 0-.0148 0-.0222 0-.0148 0-.0222 0-.0149 0-.0223 0-.0148 0-.0223 0c-.0074 0-.0149 0-.0223 0-.0075 0-.0149 0-.0224 0-.0074 0-.0149 0-.0224 0s-.0149 0-.0224 0-.015 0-.0225 0-.015 0-.0225 0-.0151 0-.0226 0-.015 0-.0226 0c-.0075 0-.0151 0-.0226 0-.0076 0-.0151 0-.0227 0-.0075 0-.0151 0-.0227 0-.0075 0-.0151 0-.0227 0s-.0152 0-.0228 0-.0152 0-.0228 0-.0152 0-.0228 0-.0153 0-.0229 0-.0153 0-.0229 0-.0153 0-.0229 0c-.0077 0-.0154 0-.023 0-.0077 0-.0154 0-.023 0-.0077 0-.0154 0-.0231 0s-.0154 0-.0231 0-.0154 0-.0231 0-.0154 0-.0231 0-.0155 0-.0232 0-.0155 0-.0232 0c-.0078 0-.0155 0-.0233 0-.0077 0-.0155 0-.0232 0-.0078 0-.0156 0-.0233 0-.0078 0-.0156 0-.0234 0s-.0156 0-.0234 0-.0156 0-.0234 0-.0156 0-.0234 0-.0157 0-.0235 0-.0156 0-.0235 0c-.0078 0-.0157 0-.0235 0-.0079 0-.0157 0-.0236 0-.0078 0-.0157 0-.0236 0-.0078 0-.0157 0-.0236 0s-.0158 0-.0237 0c-.0078 0-.0157 0-.0236 0s-.0158 0-.0238 0c-.0079 0-.0158 0-.0237 0s-.0158 0-.0238 0c-.0079 0-.0158 0-.0238 0-.0079 0-.0159 0-.0238 0-.008 0-.0159 0-.0239 0-.0079 0-.0159 0-.0239 0-.0079 0-.0159 0-.0239 0s-.0159 0-.0239 0-.016 0-.024 0-.016 0-.024 0-.016 0-.024 0c-.0081 0-.0161 0-.0241 0s-.0161 0-.0241 0-.0161 0-.0241 0-.0161 0-.0241 0c-.0081 0-.0161 0-.0242 0s-.0161 0-.0242 0-.0161 0-.0242 0-.0162 0-.0243 0-.0162 0-.0242 0c-.0081 0-.0162 0-.0244 0-.0081 0-.0162 0-.0243 0s-.0162 0-.0243 0c-.0082 0-.0163 0-.0244 0s-.0163 0-.0244 0-.0163 0-.0244 0c-.0082 0-.0163 0-.0245 0-.0081 0-.0163 0-.0245 0-.0081 0-.0163 0-.0245 0-.0081 0-.0163 0-.0245 0s-.0164 0-.0245 0c-.0082 0-.0164 0-.0246 0s-.0164 0-.0246 0-.0164 0-.0246 0c-.0083 0-.0165 0-.0247 0s-.0164 0-.0247 0c-.0082 0-.0164 0-.0246 0-.0083 0-.0165 0-.0248 0-.0082 0-.0164 0-.0247 0-.0082 0-.0165 0-.0248 0-.0082 0-.0165 0-.0247 0-.0083 0-.0166 0-.0248 0-.0083 0-.0166 0-.0249 0-.0082 0-.0165 0-.0248 0s-.0166 0-.0249 0-.0166 0-.0249 0-.0166 0-.0249 0-.0166 0-.0249 0-.0167 0-.025 0-.0166 0-.0249 0c-.0084 0-.0167 0-.025 0-.0084 0-.0167 0-.0251 0-.0083 0-.0166 0-.025 0-.0083 0-.0167 0-.025 0-.0084 0-.0168 0-.0251 0-.0084 0-.0167 0-.0251 0s-.0168 0-.0251 0c-.0084 0-.0168 0-.0252 0-.0083 0-.0167 0-.0251 0s-.0168 0-.0252 0-.0168 0-.0252 0-.0168 0-.0252 0-.0168 0-.0252 0-.0168 0-.0252 0c-.0085 0-.0169 0-.0253 0s-.0169 0-.0253 0-.0168 0-.0253 0c-.0084 0-.0168 0-.0253 0-.0084 0-.0169 0-.0253 0-.0085 0-.0169 0-.0254 0-.0084 0-.0169 0-.0253 0-.0085 0-.0169 0-.0254 0s-.0169 0-.0254 0-.0169 0-.0254 0-.017 0-.0254 0c-.0085 0-.017 0-.0255 0s-.017 0-.0254 0c-.0085 0-.017 0-.0255 0s-.017 0-.0255 0-.017 0-.0255 0-.017 0-.0255 0-.0171 0-.0256 0-.017 0-.0255 0-.0171 0-.0256 0-.017 0-.0256 0c-.0085 0-.017 0-.0255 0-.0086 0-.0171 0-.0257 0-.0085 0-.017 0-.0256 0-.0085 0-.0171 0-.0256 0s-.0171 0-.0256 0c-.0086 0-.0171 0-.0257 0s-.0171 0-.0257 0c-.0085 0-.0171 0-.0257 0-.0085 0-.0171 0-.0257 0-.0085 0-.0171 0-.0257 0-.0085 0-.0171 0-.0257 0s-.0171 0-.0257 0-.0172 0-.0258 0c-.0085 0-.0171 0-.0257 0s-.0172 0-.0258 0-.0172 0-.0257 0c-.0086 0-.0172 0-.0258 0s-.0172 0-.0258 0-.0172 0-.0258 0-.0172 0-.0259 0c-.0086 0-.0172 0-.0258 0s-.0172 0-.0258 0-.0173 0-.0259 0-.0172 0-.0258 0c-.0087 0-.0173 0-.0259 0s-.0172 0-.0259 0c-.0086 0-.0172 0-.0259 0-.0086 0-.0172 0-.0259 0-.0086 0-.0172 0-.0259 0-.0086 0-.0172 0-.0259 0-.0086 0-.0172 0-.0259 0-.0086 0-.0173 0-.0259 0-.0087 0-.0173 0-.0259 0-.0087 0-.0173 0-.026 0-.0086 0-.0173 0-.0259 0-.0087 0-.0173 0-.026 0s-.0173 0-.026 0c-.0086 0-.0173 0-.0259 0-.0087 0-.0174 0-.026 0-.0087 0-.0173 0-.026 0s-.0173 0-.026 0-.0173 0-.026 0-.0173 0-.026 0-.0173 0-.026 0-.0173 0-.026 0-.0174 0-.026 0c-.0087 0-.0174 0-.0261 0-.0086 0-.0173 0-.026 0s-.0174 0-.026 0c-.0087 0-.0174 0-.0261 0s-.0173 0-.026 0-.0174 0-.0261 0-.0173 0-.026 0-.0174 0-.0261 0-.0174 0-.026 0c-.0087 0-.0174 0-.0261 0s-.0174 0-.0261 0-.0174 0-.026 0c-.0087 0-.0174 0-.0261 0s-.0174 0-.0261 0-.0174 0-.0261 0-.0174 0-.0261 0c-.0086 0-.0173 0-.026 0s-.0174 0-.0261 0-.0174 0-.0261 0-.0174 0-.0261 0-.0174 0-.0261 0-.0174 0-.0261 0-.0174 0-.0261 0-.0174 0-.0261 0-.0174 0-.0261 0-.0174 0-.0261 0-.0174 0-.0261 0-.0174 0-.0261 0-.0174 0-.0261 0-.0174 0-.0261 0-.0174 0-.0261 0c-.0086 0-.0173 0-.026 0s-.0174 0-.0261 0-.0174 0-.0261 0-.0174 0-.0261 0-.0174 0-.0261 0-.0174 0-.0261 0-.0174 0-.0261 0-.0174 0-.0261 0-.0174 0-.0261 0-.0174 0-.0261 0c-.0086 0-.0173 0-.026 0s-.0174 0-.0261 0-.01739 0-.02608 0-.01738 0-.02607 0-.01738 0-.02607 0-.01738 0-.02607 0c-.00868 0-.01737 0-.02606 0-.00868 0-.01737 0-.02606 0-.00868 0-.01737 0-.02605 0s-.01737 0-.02605 0-.01736 0-.02604 0-.01737 0-.02604 0c-.00868 0-.01736 0-.02604 0s-.01736 0-.02603 0c-.00868 0-.01735 0-.02603 0-.00867 0-.01735 0-.02602 0s-.01734 0-.02601 0-.01734 0-.02601 0-.01734 0-.02601 0c-.00866 0-.01733 0-.026 0-.00866 0-.01732 0-.02599 0-.00866 0-.01732 0-.02598 0s-.01732 0-.02598 0-.01732 0-.02597 0c-.00866 0-.01732 0-.02597 0s-.01731 0-.02596 0-.0173 0-.02595 0-.0173 0-.02594 0c-.00865 0-.01729 0-.02594 0-.00864 0-.01728 0-.02593 0-.00864 0-.01728 0-.02592 0-.00863 0-.01727 0-.02591 0-.00863 0-.01727 0-.0259 0s-.01726 0-.02589 0c-.00864 0-.01726 0-.02589 0s-.01725 0-.02588 0c-.00862 0-.01724 0-.02587 0-.00862 0-.01724 0-.02585 0-.00862 0-.01724 0-.02585 0-.00862 0-.01723 0-.02584 0s-.01722 0-.02583 0-.01721 0-.02582 0c-.0086 0-.01721 0-.02581 0s-.0172 0-.0258 0c-.00859 0-.01719 0-.02578 0-.0086 0-.01719 0-.02578 0s-.01718 0-.02577 0c-.00858 0-.01717 0-.02575 0s-.01716 0-.02574 0-.01716 0-.02573 0c-.00858 0-.01715 0-.02572 0-.00858 0-.01714 0-.02571 0s-.01713 0-.0257 0c-.00856 0-.01712 0-.02568 0s-.01712 0-.02567 0c-.00856 0-.01711 0-.02566 0s-.0171 0-.02564 0c-.00855 0-.01709 0-.02564 0-.00854 0-.01708 0-.02561 0-.00854 0-.01708 0-.02561 0s-.01706 0-.02559 0-.01705 0-.02558 0c-.00852 0-.01704 0-.02556 0s-.01704 0-.02555 0-.01703 0-.02554 0c-.0085 0-.01701 0-.02552 0-.0085 0-.017 0-.0255 0s-.017 0-.02549 0c-.0085 0-.01699 0-.02548 0s-.01697 0-.02546 0c-.00848 0-.01696 0-.02544 0s-.01696 0-.02543 0-.01695 0-.02541 0c-.00847 0-.01694 0-.0254 0s-.01692 0-.02538 0-.01691 0-.02536 0c-.00846 0-.01691 0-.02535 0-.00845 0-.01689 0-.02533 0s-.01688 0-.02532 0c-.00843 0-.01686 0-.02529 0s-.01686 0-.02528 0-.01685 0-.02526 0c-.00842 0-.01683 0-.02525 0-.00841 0-.01682 0-.02522 0-.00841 0-.01681 0-.02521 0s-.01679 0-.02519 0c-.00839 0-.01678 0-.02517 0s-.01677 0-.02515 0-.01676 0-.02513 0c-.00838 0-.01675 0-.02512 0s-.01673 0-.02509 0-.01672 0-.02508 0c-.00835 0-.0167 0-.02505 0s-.0167 0-.02504 0-.01668 0-.02501 0c-.00834 0-.01667 0-.025 0s-.01665 0-.02497 0c-.00833 0-.01664 0-.02496 0-.00831 0-.01662 0-.02493 0s-.01661 0-.02491 0-.0166 0-.0249 0c-.00829 0-.01658 0-.02487 0-.00828 0-.01656 0-.02484 0s-.01656 0-.02483 0-.01654 0-.02481 0c-.00826 0-.01652 0-.02478 0s-.01651 0-.02476 0-.0165 0-.02474 0-.01648 0-.02471 0c-.00824 0-.01647 0-.0247 0-.00822 0-.01645 0-.02467 0-.00821 0-.01643 0-.02464 0s-.01642 0-.02462 0c-.00821 0-.01641 0-.0246 0-.0082 0-.01639 0-.02458 0s-.01637 0-.02455 0-.01636 0-.02453 0-.01634 0-.0245 0c-.00817 0-.01633 0-.02448 0-.00816 0-.01631 0-.02446 0-.00814 0-.01629 0-.02442 0-.00814 0-.01628 0-.02441 0s-.01626 0-.02438 0-.01624 0-.02435 0-.01622 0-.02433 0c-.0081 0-.0162 0-.0243 0s-.01619 0-.02428 0c-.00808 0-.01617 0-.02425 0-.00807 0-.01615 0-.02422 0s-.01613 0-.0242 0c-.00806 0-.01611 0-.02417 0-.00805 0-.0161 0-.02414 0s-.01608 0-.02411 0c-.00804 0-.01607 0-.02409 0-.00803 0-.01605 0-.02406 0-.00802 0-.01603 0-.02404 0-.008 0-.01601 0-.024 0-.008 0-.01599 0-.02398 0s-.01597 0-.02395 0-.01595 0-.02392 0-.01593 0-.02389 0-.01591 0-.02386 0-.0159 0-.02384 0-.01587 0-.0238 0-.01586 0-.02378 0-.01583 0-.02375 0c-.00791 0-.01581 0-.02371 0s-.0158 0-.02369 0-.01577 0-.02365 0-.01576 0-.02363 0-.01573 0-.02359 0-.01572 0-.02357 0-.01569 0-.02353 0-.01568 0-.02351 0c-.00782 0-.01565 0-.02347 0s-.01563 0-.02344 0c-.0078 0-.01561 0-.02341 0-.00779 0-.01558 0-.02337 0s-.01557 0-.02335 0c-.00777 0-.01554 0-.02331 0-.00776 0-.01552 0-.02328 0-.00775 0-.0155 0-.02325 0z" fill="#000"/><path d="m6 12.1464s.5 1.8536-.95918 1.8536h-3.14286c-.29932 0-.89796-.1573-.89796-.7864v-5.89765c0-.78636.62857-1.57272 1.34694-1.57272.14966 0 .44898-.07864.44898-.39318 0-.39318-.44898-.39318-1.34694-.39318-.44894 0-.44898-.78636.44898-.78636h1.79588c2.78387-3.656664 2.99395-3.14619 7.65336-3.14619m7.1528 11.12208c0 .4634-.5 1.8536.4592 1.8536h3.1428c.2994 0 .898-.1573.898-.7864v-5.89765c0-.78636-.6286-1.57272-1.3469-1.57272-.1497 0-.449-.07864-.449-.39318 0-.39318.449-.39318 1.3469-.39318.449 0 .449-.78636-.449-.78636h-1.7958c-2.7704-3.63897-2.3062-3.14541-9.4286-3.14543" stroke="#000"/><g fill="#000"><path d="m4.14752 7.03473c-.26384-.08151-.5438.0663-.6253.33014-.08151.26384.0663.5438.33014.6253zm1.20484 1.41883c.26384.08151.5438-.0663.6253-.33014.08151-.26384-.0663-.5438-.33014-.6253zm14.79514-.46339c.2639-.0815.4117-.36146.3302-.6253s-.3615-.41165-.6253-.33014zm-1.7951-.49205c-.2639.0815-.4117.36146-.3302.6253s.3615.41165.6253.33014zm-14.50004.49205 1.5.46339.29516-.95544-1.5-.46339zm16.00004-.95544-1.5.46339.2951.95544 1.5-.46339z"/><path d="m9.99976 8.86621c-.27615 0-.5.22386-.5.5s.22385.5.5.5zm4.00004 1c.2761 0 .5-.22386.5-.5s-.2239-.5-.5-.5zm-4.00004 0h1.49104v-1h-1.49104zm1.49104 0h.8135v-1h-.8135zm.8135 0h1.6955v-1h-1.6955z"/><path d="m3.99994 11.1831c-.27614 0-.5.2239-.5.5s.22386.5.5.5zm15.99996 1c.2762 0 .5-.2239.5-.5s-.2238-.5-.5-.5zm-15.99996 0h.03346.03343.0334.03336.03333.03329.03326.03322.03319.03316.03313.03309.03306.03302.03299.03296.03293.0329.03286.03283.0328.03277.03273.03271.03267.03265.03261.03258.03255.03252.03249.03246.03243.0324.03237.03234.03231.03228.03225.03223.03219.03217.03214.03211.03208.03205.03203.032.03197.03194.03192.03189.03186.03184.0318.03179.03175.03173.03171.03168.03165.03163.0316.03157.03156.03152.0315.03148.03145.03143.03141.03138.03135.03133.03131.03129.03126.03124.03122.03119.03117.03115.03113.0311.03108.03106.03104.03102.031.03097.03095.03094.03091.03089.03087.03085.03083.03081.03079.03077.03075.03073.03072.03069.03067.03066.03064.03062.0306.03058.03056.03055.03053.03051.03049.03048.03046.03044.03042.03041.03039.03038.03036.03034.03033.03031.0303.03028.03027.03025.03023.03022.03021.03019.03018.03016.03015.03014.03012.03011.03009.03008.03007.03006.03004.03003.03002.03.02999.02998.02997.02996.02995.02993.02992.02992.0299.02989.02988.02986.02986.02985.02984.02983.02982.02981.02979.0298.02978.02977.02976.02976.02974.02974.02973.02972.02972.0297.0297.02969.02968.02968.02967.02966.02966.02965.02964.02964.02963.02962.02962.02962.0296.02964.0296.0296.0295.0296.0296.0296.0296.0295.0296.0295.0296.0295.0296.0295.0296.0295.0296.0295.0295.0295.0296.0295.0295.0295.0296.0295.0295.0295.0295.0295.0296.0295.0295.0295.0295.0295.0295.0296.0295.0295.0295.0295.0296.0295.0295.0295.0295.0296.0295.0295.0296.0295.0296.0295.0295.0296.0296.0295.0296.0295.0296.0296.0296.0295.0296.0296.0296.0296.0296.0296.0297.0296.0296.0296.0297.0296.0297.0297.0296.0297.0297.0297.0297.0297.0297.0297.0297.0298.0297.0298.0297.0298.0298.0298.0298.0298.0298.0298.0299.0298.0299.0298.0299.0299.0299.0299.0299.03.0299.03.0299.03.03.03.03.0301.03.0301.03.0301.0301.0301.0301.0302.0301.0302.0301.0302.0302.0303.0302.0302.0303.0303.0303.0303.0303.0304.0303.0304.0304.0304.0304.0304.0305.0305.0305.0305.0305.0305.0306.0306.0306.0306.0306.0307.0307.0307.0307.0307.0307.0308.0308.0308.0308.0309.0309.0308.031.0309.0309.031.031.031.0311.031.0311.0311.0311.0312.0311.0312.0312.0313.0312.0313.0313.0313.0314.0314.0314.0314.0315.0314.0315.0316.0315.0316.0316.0316.0317.0316.0317.0318.0317.0318.0318.0318.0319.0319.0319.0319.032.032.032.0321.032.0321.0322.0321.0322.0323.0322.0323.0323.0323.0324.0324.0324.0325.0325.0325.0325.0326.0326.0327.0326.0327.0328.0327.0328.0328.0329.0329.0329.033.033.033.033.0331.0332.0331.0332.0332.0333.0333.0333.0333.0334.0335.0334.0335.0335.0336.0336.0336.0337.0337.0338.0338.0338.0338.0339.0339.034.034.034.0341.0341.0342.0342.0342.0342.0343.0344.0344.0344.0344.0345.0346.0345.0347.0346.0347.0347.0348.0348.0349.0349.0349.035.035.035.0351.0352.0352.0352.0352.0354.0353.0354.0354.0355.0355.0356.0356.0356.0357v-1c-.0119 0-.0238 0-.0357 0-.0118 0-.0237 0-.0356 0s-.0237 0-.0356 0-.0237 0-.0356 0c-.0118 0-.0237 0-.0355 0s-.0236 0-.0355 0c-.0118 0-.0236 0-.0354 0s-.0236 0-.0354 0-.0236 0-.0353 0c-.0118 0-.0236 0-.0354 0-.0117 0-.0235 0-.0352 0-.0118 0-.0235 0-.0352 0-.0118 0-.0235 0-.0352 0s-.0235 0-.0352 0-.0234 0-.0351 0-.0233 0-.035 0-.0234 0-.035 0c-.0117 0-.0234 0-.035 0-.0117 0-.0233 0-.0349 0-.0117 0-.0233 0-.0349 0-.0117 0-.0233 0-.0349 0s-.0232 0-.0348 0-.0232 0-.0348 0-.0231 0-.0347 0-.0231 0-.0347 0-.0231 0-.0346 0c-.0116 0-.0231 0-.0347 0-.0115 0-.023 0-.0345 0-.0116 0-.0231 0-.0346 0s-.023 0-.0345 0-.0229 0-.0344 0-.023 0-.0344 0c-.0115 0-.023 0-.0344 0-.0115 0-.0229 0-.0344 0-.0114 0-.0228 0-.0343 0-.0114 0-.0228 0-.0342 0s-.0228 0-.0342 0-.0228 0-.0342 0-.0228 0-.0342 0-.0227 0-.0341 0-.0227 0-.0341 0c-.0113 0-.0227 0-.034 0s-.0227 0-.034 0-.0227 0-.034 0-.0226 0-.0339 0-.0226 0-.0339 0-.0226 0-.0338 0c-.0113 0-.0226 0-.0338 0-.0113 0-.0226 0-.0338 0-.0113 0-.0225 0-.0338 0-.0112 0-.0225 0-.0337 0s-.0224 0-.0337 0c-.0112 0-.0224 0-.0336 0s-.0224 0-.0336 0-.0224 0-.0336 0c-.0111 0-.0223 0-.0335 0s-.0223 0-.0335 0c-.0111 0-.0223 0-.0334 0-.0112 0-.0223 0-.0335 0-.0111 0-.0222 0-.0334 0-.0111 0-.0222 0-.0333 0s-.0222 0-.0333 0-.0222 0-.0333 0-.0222 0-.0333 0-.0221 0-.0332 0-.0221 0-.0332 0-.0221 0-.0331 0c-.0111 0-.0221 0-.0332 0-.011 0-.022 0-.0331 0-.011 0-.022 0-.033 0s-.022 0-.033 0-.022 0-.033 0-.022 0-.033 0-.0219 0-.0329 0-.0219 0-.0329 0-.0219 0-.0329 0c-.0109 0-.0218 0-.0328 0-.0109 0-.0219 0-.0328 0s-.0218 0-.0327 0c-.011 0-.0219 0-.0328 0s-.0218 0-.0327 0-.0218 0-.0326 0c-.0109 0-.0218 0-.0327 0s-.0217 0-.0326 0-.0217 0-.0326 0c-.0108 0-.0217 0-.0325 0-.0109 0-.0217 0-.0325 0-.0109 0-.0217 0-.0325 0s-.0217 0-.0325 0-.0216 0-.0324 0-.0216 0-.0324 0-.0216 0-.0324 0-.0215 0-.0323 0-.0215 0-.0323 0-.0215 0-.0323 0c-.0107 0-.0215 0-.0322 0-.0108 0-.0215 0-.0323 0-.0107 0-.0214 0-.0322 0-.0107 0-.0214 0-.0321 0s-.0214 0-.0322 0c-.0107 0-.0214 0-.0321 0s-.0213 0-.032 0-.0214 0-.0321 0-.0213 0-.032 0-.0213 0-.032 0-.0213 0-.032 0c-.0106 0-.0213 0-.0319 0-.0107 0-.0213 0-.0319 0-.0107 0-.0213 0-.0319 0s-.0213 0-.0319 0-.0212 0-.0318 0-.0212 0-.0318 0-.0212 0-.0318 0-.0212 0-.0317 0c-.0106 0-.0212 0-.0318 0-.0105 0-.0211 0-.0317 0-.0105 0-.0211 0-.0316 0-.0106 0-.0212 0-.0317 0s-.0211 0-.0316 0c-.0106 0-.0211 0-.0316 0-.0106 0-.0211 0-.0316 0s-.021 0-.0315 0c-.0106 0-.0211 0-.0316 0s-.021 0-.0315 0-.021 0-.0314 0c-.0105 0-.021 0-.0315 0s-.0209 0-.0314 0-.021 0-.0314 0c-.0105 0-.0209 0-.0314 0s-.0209 0-.0314 0c-.0104 0-.0208 0-.0313 0-.0104 0-.0209 0-.0313 0s-.0208 0-.0313 0c-.0104 0-.0208 0-.0312 0s-.0209 0-.0313 0-.0208 0-.0312 0-.0208 0-.0312 0-.0208 0-.0311 0c-.0104 0-.0208 0-.0312 0s-.0207 0-.0311 0-.0207 0-.0311 0-.0207 0-.0311 0c-.0103 0-.0207 0-.031 0-.0104 0-.0207 0-.0311 0-.0103 0-.0207 0-.031 0s-.0207 0-.031 0-.0206 0-.031 0c-.0103 0-.0206 0-.0309 0s-.0206 0-.0309 0c-.0104 0-.0207 0-.031 0s-.0206 0-.0308 0c-.0103 0-.0206 0-.0309 0s-.0206 0-.0309 0c-.0102 0-.0205 0-.0308 0s-.0205 0-.0308 0-.0205 0-.0308 0c-.0102 0-.0205 0-.0308 0-.0102 0-.0205 0-.0307 0-.0103 0-.0205 0-.0307 0-.0103 0-.0205 0-.0307 0-.0103 0-.0205 0-.0307 0-.0103 0-.0205 0-.0307 0s-.0204 0-.0307 0c-.0102 0-.0204 0-.0306 0s-.0204 0-.0306 0-.0204 0-.0306 0-.0204 0-.0306 0-.0204 0-.0306 0c-.0101 0-.0203 0-.0305 0s-.0203 0-.0305 0-.0204 0-.0305 0c-.0102 0-.0204 0-.0305 0-.0102 0-.0203 0-.0305 0s-.0203 0-.0305 0c-.0101 0-.0203 0-.0304 0s-.0203 0-.0304 0c-.0102 0-.0203 0-.0304 0-.0102 0-.0203 0-.0304 0s-.0203 0-.0304 0-.0202 0-.0303 0c-.0102 0-.0203 0-.0304 0s-.0202 0-.0303 0-.0202 0-.0303 0-.0202 0-.0303 0-.0202 0-.0303 0-.0202 0-.0303 0c-.01 0-.0201 0-.0302 0s-.0202 0-.0302 0c-.0101 0-.0202 0-.0303 0-.01 0-.0201 0-.0302 0-.01 0-.0201 0-.0302 0-.01 0-.0201 0-.0301 0-.0101 0-.0201 0-.0302 0-.01 0-.0201 0-.0301 0-.0101 0-.0201 0-.0302 0-.01 0-.0201 0-.0301 0s-.0201 0-.0301 0-.0201 0-.0301 0-.0201 0-.0301 0-.02 0-.03 0c-.0101 0-.0201 0-.0301 0s-.02 0-.03 0c-.0101 0-.0201 0-.0301 0s-.02 0-.03 0-.02 0-.03 0-.02 0-.03 0-.02 0-.03 0-.0199 0-.0299 0-.02 0-.03 0-.0199 0-.0299 0-.02 0-.03 0c-.0099 0-.0199 0-.0299 0s-.0199 0-.0299 0-.0199 0-.0299 0-.0199 0-.0299 0c-.0099 0-.0199 0-.0299 0-.0099 0-.0199 0-.0298 0-.01 0-.0199 0-.0299 0-.0099 0-.0199 0-.0298 0-.01 0-.0199 0-.0299 0-.0099 0-.0199 0-.0298 0s-.0199 0-.0298 0c-.01 0-.0199 0-.0298 0-.01 0-.0199 0-.0298 0-.01 0-.0199 0-.0298 0s-.0199 0-.0298 0-.0198 0-.0298 0c-.0099 0-.0198 0-.0297 0s-.0199 0-.0298 0-.0198 0-.0297 0-.0198 0-.0298 0c-.0099 0-.0198 0-.0297 0s-.0198 0-.0297 0-.0198 0-.0297 0-.0198 0-.0297 0-.0198 0-.0297 0-.0198 0-.0297 0-.0198 0-.0297 0-.0198 0-.0297 0-.0198 0-.0296 0c-.0099 0-.0198 0-.0297 0s-.0198 0-.0297 0c-.0098 0-.0197 0-.0296 0s-.0198 0-.0297 0c-.0098 0-.0197 0-.0296 0s-.0197 0-.0296 0-.0198 0-.0296 0c-.0099 0-.0198 0-.0297 0-.0098 0-.0197 0-.0296 0-.0098 0-.0197 0-.0296 0-.0098 0-.0197 0-.0296 0-.0098 0-.0197 0-.0296 0-.0098 0-.0197 0-.0296 0-.0098 0-.0197 0-.0296 0-.0098 0-.0197 0-.0295 0-.0099 0-.0198 0-.0296 0-.0099 0-.0197 0-.0296 0-.0098 0-.0197 0-.0296 0-.0098 0-.0197 0-.0295 0-.0099 0-.0197 0-.0296 0-.0098 0-.0197 0-.0295 0-.0099 0-.0198 0-.0296 0-.0099 0-.0197 0-.0296 0-.0098 0-.0197 0-.0295 0s-.0197 0-.0295 0c-.0099 0-.0197 0-.0296 0-.0098 0-.0197 0-.0295 0-.0099 0-.0197 0-.0296 0-.0098 0-.0196 0-.0295 0-.0098 0-.0197 0-.0295 0-.0099 0-.0197 0-.0296 0-.0098 0-.0196 0-.0295 0-.0098 0-.0197 0-.0295 0s-.0197 0-.0295 0c-.0099 0-.0197 0-.0295 0-.0099 0-.0197 0-.0296 0-.0098 0-.0196 0-.0295 0-.0098 0-.0197 0-.0295 0s-.0197 0-.0295 0c-.0099 0-.0197 0-.0295 0-.0099 0-.0197 0-.0296 0-.0098 0-.0196 0-.0295 0-.0098 0-.0196 0-.0295 0-.0098 0-.0197 0-.0295 0s-.0197 0-.0295 0-.0197 0-.0295 0c-.0099 0-.0197 0-.0295 0-.0099 0-.0197 0-.0296 0-.0098 0-.0196 0-.0295 0-.0098 0-.0196 0-.0295 0-.0098 0-.0197 0-.0295 0s-.0197 0-.0295 0c-.0099 0-.0197 0-.0295 0-.0099 0-.0197 0-.0296 0-.0098 0-.0196 0-.0295 0-.0098 0-.0197 0-.0295 0s-.0197 0-.0295 0c-.0099 0-.0197 0-.0296 0-.0098 0-.0196 0-.0295 0-.0098 0-.0197 0-.0295 0-.0099 0-.0197 0-.0295 0-.0099 0-.0197 0-.0296 0-.0098 0-.0197 0-.0295 0-.0099 0-.0197 0-.0296 0-.0098 0-.0197 0-.0295 0-.0099 0-.0197 0-.0296 0-.0098 0-.0197 0-.0295 0-.0099 0-.0197 0-.0296 0-.0098 0-.0197 0-.0295 0-.0099 0-.0197 0-.0296 0-.0098 0-.0197 0-.0295 0-.0099 0-.0198 0-.0296 0-.0099 0-.0197 0-.0296 0s-.0197 0-.0296 0c-.0098 0-.0197 0-.0296 0-.0098 0-.0197 0-.0295 0-.0099 0-.0198 0-.0296 0-.0099 0-.0198 0-.0296 0-.0099 0-.0198 0-.02964 0-.00986 0-.01973 0-.0296 0s-.01975 0-.02962 0-.01974 0-.02962 0c-.00987 0-.01974 0-.02962 0s-.01975 0-.02963 0-.01976 0-.02964 0-.01976 0-.02964 0-.01977 0-.02965 0c-.00989 0-.01977 0-.02966 0-.00988 0-.01977 0-.02966 0s-.01978 0-.02967 0-.01978 0-.02968 0c-.00989 0-.01978 0-.02968 0s-.01979 0-.02969 0-.0198 0-.0297 0-.0198 0-.0297 0c-.00991 0-.01981 0-.02972 0-.0099 0-.01981 0-.02972 0s-.01982 0-.02973 0-.01982 0-.02974 0c-.00991 0-.01983 0-.02974 0-.00992 0-.01984 0-.02976 0s-.01984 0-.02976 0-.01985 0-.02977 0c-.00993 0-.01986 0-.02978 0-.00993 0-.01986 0-.0298 0-.00993 0-.01986 0-.02979 0-.00994 0-.01988 0-.02981 0-.00994 0-.01988 0-.02982 0s-.01989 0-.02983 0-.01989 0-.02984 0-.0199 0-.02985 0-.0199 0-.02986 0c-.00995 0-.01991 0-.02986 0-.00996 0-.01992 0-.02988 0-.00997 0-.01993 0-.02989 0-.00997 0-.01994 0-.0299 0-.00997 0-.01994 0-.02992 0-.00997 0-.01994 0-.02992 0s-.01995 0-.02993 0-.01996 0-.02995 0c-.00998 0-.01997 0-.02996 0-.00998 0-.01997 0-.02997 0-.00999 0-.01998 0-.02998 0-.00999 0-.01999 0-.02999 0s-.02 0-.03 0c-.01001 0-.02001 0-.03002 0s-.02002 0-.03003 0-.02003 0-.03004 0c-.01002 0-.02004 0-.03006 0s-.02004 0-.03007 0c-.01002 0-.02005 0-.03008 0s-.02006 0-.03009 0c-.01004 0-.02007 0-.03011 0s-.02008 0-.03012 0c-.01005 0-.02009 0-.03014 0s-.0201 0-.03015 0-.0201 0-.03016 0-.02012 0-.03018 0-.02012 0-.03019 0-.02014 0-.03021 0-.02014 0-.03022 0c-.01007 0-.02015 0-.03023 0s-.02017 0-.03025 0c-.01009 0-.02018 0-.03027 0s-.02018 0-.03028 0-.0202 0-.0303 0-.0202 0-.03031 0-.02022 0-.03033 0-.02022 0-.03034 0-.02024 0-.03036 0-.02025 0-.03038 0c-.01012 0-.02026 0-.03039 0s-.02027 0-.03041 0-.02028 0-.03042 0c-.01015 0-.02029 0-.03044 0-.01016 0-.02031 0-.03046 0-.01016 0-.02032 0-.03048 0s-.02033 0-.03049 0c-.01017 0-.02034 0-.03051 0-.01018 0-.02035 0-.03053 0s-.02036 0-.03055 0c-.01018 0-.02037 0-.03056 0s-.02039 0-.03058 0c-.0102 0-.0204 0-.0306 0-.01021 0-.02041 0-.03062 0s-.02042 0-.03064 0-.02043 0-.03066 0c-.01022 0-.02044 0-.03067 0s-.02046 0-.03069 0c-.01024 0-.02048 0-.03072 0s-.02048 0-.03073 0c-.01024 0-.02049 0-.03075 0-.01025 0-.02051 0-.03077 0s-.02052 0-.03079 0-.02054 0-.03081 0-.02055 0-.03083 0-.02056 0-.03085 0-.02058 0-.03087 0-.02059 0-.03089 0-.02061 0-.03091 0c-.01031 0-.02062 0-.03094 0-.01031 0-.02063 0-.03095 0s-.02065 0-.03097 0c-.01033 0-.02066 0-.031 0-.01033 0-.02067 0-.03102 0-.01034 0-.02069 0-.03104 0-.01034 0-.0207 0-.03106 0-.01035 0-.02071 0-.03108 0-.01036 0-.02073 0-.0311 0s-.02075 0-.03113 0-.02076 0-.03115 0c-.01038 0-.02077 0-.03117 0-.01039 0-.02079 0-.03119 0s-.02081 0-.03122 0-.02082 0-.03124 0c-.01041 0-.02084 0-.03126 0-.01043 0-.02085 0-.03129 0-.01043 0-.02086 0-.03131 0-.01044 0-.02088 0-.03133 0s-.0209 0-.03135 0c-.01046 0-.02092 0-.03138 0-.01047 0-.02094 0-.03141 0s-.02095 0-.03143 0-.02096 0-.03145 0-.02098 0-.03148 0c-.01049 0-.02099 0-.0315 0-.0105 0-.02101 0-.03152 0-.01052 0-.02103 0-.03156 0-.01052 0-.02104 0-.03157 0s-.02107 0-.0316 0c-.01054 0-.02108 0-.03163 0s-.0211 0-.03165 0c-.01056 0-.02112 0-.03168 0-.01057 0-.02113 0-.03171 0-.01057 0-.02115 0-.03173 0s-.02116 0-.03175 0-.02119 0-.03179 0c-.01059 0-.0212 0-.0318 0-.01061 0-.02122 0-.03184 0s-.02124 0-.03186 0c-.01063 0-.02126 0-.03189 0-.01064 0-.02127 0-.03192 0-.01064 0-.02129 0-.03194 0s-.02131 0-.03197 0-.02133 0-.032 0-.02135 0-.03203 0-.02136 0-.03205 0-.02138 0-.03208 0-.0214 0-.03211 0-.02142 0-.03214 0-.02144 0-.03217 0c-.01072 0-.02146 0-.03219 0-.01074 0-.02148 0-.03223 0-.01074 0-.02149 0-.03225 0s-.02152 0-.03228 0c-.01077 0-.02154 0-.03231 0-.01078 0-.02156 0-.03234 0-.01079 0-.02158 0-.03237 0-.0108 0-.0216 0-.0324 0-.01081 0-.02162 0-.03243 0-.01082 0-.02164 0-.03246 0-.01083 0-.02166 0-.03249 0-.01084 0-.02168 0-.03252 0-.01085 0-.0217 0-.03255 0-.01086 0-.02172 0-.03258 0-.01087 0-.02174 0-.03261 0-.01088 0-.02176 0-.03265 0-.01088 0-.02177 0-.03267 0s-.0218 0-.03271 0c-.0109 0-.02181 0-.03273 0s-.02184 0-.03277 0-.02186 0-.0328 0-.02188 0-.03283 0-.0219 0-.03286 0-.02193 0-.0329 0-.02195 0-.03293 0-.02196 0-.03296 0c-.01099 0-.02199 0-.03299 0s-.02201 0-.03302 0c-.01102 0-.02204 0-.03306 0-.01103 0-.02206 0-.03309 0-.01104 0-.02208 0-.03313 0-.01104 0-.0221 0-.03316 0-.01105 0-.02212 0-.03319 0s-.02214 0-.03322 0-.02217 0-.03326 0-.02219 0-.03329 0c-.01111 0-.02222 0-.03333 0s-.02223 0-.03336 0-.02226 0-.0334 0c-.01113 0-.02228 0-.03343 0s-.0223 0-.03346 0z"/></g></svg>