<svg xmlns="http://www.w3.org/2000/svg" width="149" height="149" viewBox="0 0 149 149">
  <g id="Group_8664" data-name="Group 8664" transform="translate(-194 -466)">
    <circle id="Ellipse_13" data-name="Ellipse 13" cx="74.5" cy="74.5" r="74.5" transform="translate(194 466)" fill="#3cdfcd"/>
    <g id="Group_709" data-name="Group 709" transform="translate(-9 -7.464)">
      <g id="Group_708" data-name="Group 708" transform="translate(236 531.916)">
        <path id="Path_846" data-name="Path 846" d="M579.906-457.173c2.562-.074,5.126-.023,7.689-.024h4.071c5.332,0,5.283,0,5.2-5.292-.02-1.3-.392-1.649-1.659-1.625-3.919.076-7.84.027-11.76.027-5.37,0-5.328,0-5.122,5.411C578.377-457.469,578.751-457.14,579.906-457.173Z" transform="translate(-569.145 487.647)" fill="#fff"/>
        <path id="Path_847" data-name="Path 847" d="M613.49-440.042q-16.651.061-33.3,0c-1.347-.006-1.827.3-1.829,1.74s.618,1.552,1.772,1.542c5.512-.044,11.025-.02,16.537-.021,5.588,0,11.176-.025,16.764.018,1.187.009,1.944.015,1.935-1.6C615.358-439.9,614.759-440.046,613.49-440.042Z" transform="translate(-569.196 474.509)" fill="#fff"/>
        <path id="Path_848" data-name="Path 848" d="M640.781-509.583a6.371,6.371,0,0,0-6.445-6.3c-5.976-.068-11.954-.025-17.931-.009-.551,0-1.192-.222-1.516.6-.49,1.239-1.092,2.433-1.739,3.847h2.392c5.977,0,11.954.028,17.931-.019,2-.015,2.978.808,2.891,2.835a9.582,9.582,0,0,0,.015,2.039c.378,2.153-.591,2.538-2.577,2.532-22.319-.069-44.637-.042-66.956-.04-4.238,0-4.238,0-4.175-4.274.038-2.555.512-3.057,3.07-3.065,6.128-.018,12.256,0,18.384-.026.534,0,1.185.316,1.663-.312a27.788,27.788,0,0,1-1.336-2.861,1.749,1.749,0,0,0-2.006-1.285c-5.9.047-11.8-.021-17.7.04a6.361,6.361,0,0,0-6.492,6.252q-.135,17.362-.011,34.725a6.3,6.3,0,0,0,6.416,6.322q34.84.062,69.68.008a6.3,6.3,0,0,0,6.45-6.278Q640.909-492.219,640.781-509.583ZM636.36-476.1c-.005,2.579-.5,3.118-3.029,3.119q-33.807.009-67.614-.023c-2.54,0-3.036-.531-3.041-3.1-.012-7.11.048-14.22-.043-21.328-.022-1.7.318-2.279,2.173-2.263,11.57.1,23.143.049,34.714.048s23.143.027,34.715-.033c1.559-.008,2.219.174,2.185,2.023C636.288-490.476,636.375-483.289,636.36-476.1Z" transform="translate(-558.184 515.927)" fill="#fff"/>
        <path id="Path_849" data-name="Path 849" d="M632.71-457.188h2.26c1.884,0,3.768.016,5.651-.012.476-.007,1.293.272,1.327-.428a60.012,60.012,0,0,0-.036-6.071c-.027-.524-.737-.375-1.163-.376-3.919-.008-7.837,0-11.755-.005-.719,0-1.2,0-1.322,1C626.972-457.52,627.22-457.188,632.71-457.188Z" transform="translate(-595.959 487.635)" fill="#fff"/>
      </g>
      <path id="Path_850" data-name="Path 850" d="M636.288-547.748a11.777,11.777,0,0,0-11.777,11.777,11.777,11.777,0,0,0,11.777,11.777,11.777,11.777,0,0,0,11.777-11.777A11.777,11.777,0,0,0,636.288-547.748Zm6.685,9.7-7.066,6.477a1.177,1.177,0,0,1-1.629-.035l-3.533-3.533a1.177,1.177,0,0,1-.029-1.665,1.178,1.178,0,0,1,1.665-.029l.029.029,2.735,2.736,6.235-5.715a1.178,1.178,0,0,1,1.664.072A1.178,1.178,0,0,1,642.973-538.047Z" transform="translate(-358.387 1065.212)" fill="#fff"/>
    </g>
  </g>
</svg>
