<svg fill="none" height="18" viewBox="0 0 17 18" width="17" xmlns="http://www.w3.org/2000/svg"><path d="m.511684.577869.000141.00011.007932-.0108c.00434-.00591.0098-.010889.016056-.014657.005393-.003249.011288-.005544.017428-.006798.900979-.109703 1.475559-.015214 1.858289.210236.21437.147418.39456.33933.52824.56274.136.22728.22055.48162.24771.74513l.00216.02094.00391.02068c.2327 1.23103.11767 1.69576-.13142 1.95842-.13652.14394-.33585.2597-.66623.35602-.33697.09825-.77013.1654-1.34769.23639v-.00006l-.00774.00107c-.01445.00201-.02913-.0018-.040815-.01062-.011034-.00834-.018566-.02051-.02111-.03413l-.478486-3.998008c-.000604-.013206.003511-.026214.011625-.036663z" stroke="#000"/><path d="m5.3747 16.6172c.28721 0 .52004-.2328.52004-.52s-.23283-.5201-.52004-.5201c-.28722 0-.52005.2329-.52005.5201s.23283.52.52005.52z" fill="#000"/><g stroke="#000"><path d="m16.4992 15.1674-.003.0275v.0277 1.3118.0001c-.0001.2561-.1019.5016-.2829.6826l-.0001.0001c-.1809.1811-.4263.2828-.6821.2829h-.0001-10.82158c-.2564-.0009-.50213-.103-.68374-.2842-.17972-.1793-.28224-.4217-.28586-.6754.02179-.6121.28259-1.1914.72658-1.6135h.00002l.00355-.0034c.48198-.4673 1.10207-.7661 1.76772-.8519h.00001l.00796-.0011 7.99864-1.1623.0014-.0002c.0776-.0115.1559-.0176.2343-.0182.2435.0052.4836.0586.7063.1574.2245.0994.4267.2429.5949.4218h-.0001l.0059.0061c.3694.3798.6097.8665.6869 1.3908l.0003.0017c.0148.0979.0233.1967.0255.2956z"/><path d="m2.83585 5.74805.00913-.00193.00904-.00227c.15178-.03811.31039-.03992.463-.00528.14868.03374.2876.10116.4061.19701.31446.29249.53356.67316.62846 1.09236l.00236.01038.00279.01028 1.50785 5.551c-.64477.1055-1.26457.3324-1.82618.6695l-.01395.0084-.01339.0093c-.3585.2483-.68803.5353-.9828.8554l-1.69273-7.95206c-.0054-.02833.00006-.05764.01525-.08209.00819-.01188.01854-.0221.03051-.03012.01258-.00843.0267-.01427.04155-.0172l.73488-.14461-.01428-.02143z"/></g></svg>