<svg fill="none" height="10" viewBox="0 0 27 10" width="27" xmlns="http://www.w3.org/2000/svg"><path d="m21.6367 9.49999c-.9797 0-1.7588-.797-1.7588-1.75 0-.97118.7973-1.74999 1.7588-1.74999.9796 0 1.7587.79699 1.7587 1.74999 0 .97487-.7754 1.75-1.7587 1.75z" stroke="#000"/><path d="m8.40539 7.74999h-.0001l.00021.01025c.01961.95753-.76583 1.73975-1.75883 1.73975-.97969 0-1.75873-.797-1.75873-1.75 0-.97118.7973-1.74999 1.75873-1.74999.97968 0 1.75872.79699 1.75872 1.74999z" stroke="#000"/><path d="m19.5967 8.9088h-11.30647c-.16037 0-.32075-.20662-.32075-.4959 0-.24796.13365-.49591.32075-.49591h11.30647c.1604 0 .3207.20663.3207.49591s-.1603.4959-.3207.4959z" fill="#000"/><path d="m11.3698 1.28125v2.9659c0 .17898.154.30682.308.30682h4.2351c.9754 0 1.8994-.38352 2.5924-1.07386l.4166-.52203" stroke="#000"/><path d="m11.6779 4.55401h-1.4887c-1.66836 0-3.2084-.97158-3.90142-2.50567" stroke="#000"/><path d="m3.62493 4.94176h-2.26287c-.18103 0-.36206-.20663-.36206-.4959 0-.28928.15086-.49591.36206-.49591h2.26287c.18103 0 .36206.20663.36206.49591 0 .28927-.18103.4959-.36206.4959z" fill="#000"/><path d="m23.5616 8.49146h1.8224c.154 0 .308-.07671.4363-.20455.1284-.12784.1797-.28125.1797-.43466l-.0257-1.35511c0-.28125-.1026-.51136-.3336-.66477l-.4107-.25568v-.53693c.0256-.30682-.154-.58807-.4364-.71591-.616-.28125-2.0534-.76704-4.6971-.92045-.8983-.05113-1.4117-.28125-2.2074-.69034l-2.1304-1.04829c-.8727-.43466-1.848-.66477-2.8234-.66477h-2.7207c-1.87374 0-3.64479.46023-5.15916 1.32954-.97536.58807-1.97638.84375-2.95174.79261-.15401 0-.30801.05114-.41068.15341s-.17967.25568-.17967.40909v.84375c-.15401.23011-.51335.84375-.51335 1.68749 0 .79261.38501 2.27557 1.84805 2.27557h1.89938" stroke="#000"/></svg>