<svg xmlns="http://www.w3.org/2000/svg" width="47" height="42" viewBox="0 0 47 42">
  <g id="Group_3335" data-name="Group 3335" transform="translate(-897 -6015)">
    <rect id="Rectangle_148" data-name="Rectangle 148" width="47" height="42" rx="21" transform="translate(897 6015)" fill="#3cdfcd"/>
    <path id="tiktok-svgrepo-com" d="M13.383,1.023C14.628,1,15.865,1.014,17.1,1A5.906,5.906,0,0,0,18.766,4.97l0,0a6.673,6.673,0,0,0,4.01,1.7l.021,0V10.5a10.139,10.139,0,0,1-4.056-.949l.062.026a11.706,11.706,0,0,1-1.58-.91l.04.026c-.009,2.776.009,5.553-.019,8.319a7.238,7.238,0,0,1-1.3,3.769l.015-.024a7.087,7.087,0,0,1-5.608,3.052H10.34c-.094,0-.2.007-.315.007a6.9,6.9,0,0,1-3.595-1l.03.017a7.186,7.186,0,0,1-3.468-5.4l0-.031c-.019-.476-.028-.951-.009-1.417A7.165,7.165,0,0,1,10.1,9.538a7.244,7.244,0,0,1,1.22.1l-.043-.006c.019,1.407-.038,2.814-.038,4.221a3.2,3.2,0,0,0-1.08-.184A3.264,3.264,0,0,0,7.085,15.85l-.007.023a3.692,3.692,0,0,0-.16,1.085,3.9,3.9,0,0,0,.028.464l0-.018a3.241,3.241,0,0,0,3.2,2.731c.046,0,.092,0,.138,0h-.007A3.194,3.194,0,0,0,12.9,18.615l.008-.014a2.175,2.175,0,0,0,.389-1v-.011c.1-1.7.057-3.394.066-5.1.009-3.832-.009-7.654.019-11.476Z" transform="translate(908.03 6023.996)" fill="#06070a"/>
  </g>
</svg>
