<svg fill="none" height="20" viewBox="0 0 20 20" width="20" xmlns="http://www.w3.org/2000/svg"><g fill="#000"><path d="m14.3478 3.64532c-.2536 0-.4348.16421-.4348.39409v5.58293h-3.4782v-5.58293c0-.22988-.1812-.39409-.43481-.39409-.25362 0-.43478.16421-.43478.39409v5.58293h-3.47826v-3.61248c.32609-.06568.61594-.16421.86956-.32841.97826-.65682 1.19566-1.90476.50725-2.79146-.39855-.52545-1.08696-.82102-1.77536-.82102-.47102 0-.9058.13136-1.30435.39409-.97826.65681-1.19565 1.90476-.50725 2.79146.32609.39409.83334.68966 1.34058.78818v9.9836c0 .2299.18116.3941.43479.3941.25362 0 .43478-.1642.43478-.3941v-5.5829h3.47826v5.5829c0 .2299.18116.3941.43478.3941.25361 0 .43481-.1642.43481-.3941v-5.5829h3.913c.2174 0 .3986-.1642.4348-.3613v-.0328-6.00989c0-.22988-.1812-.39409-.4348-.39409zm-9.78259 1.11659c-.43478-.55829-.28985-1.31363.28986-1.70772.21739-.1642.50724-.22988.7971-.22988.43478 0 .83333.19704 1.08695.49261.43479.55829.28986 1.31363-.28985 1.70771-.21739.16421-.50725.22989-.7971.22989-.43479 0-.83334-.19704-1.08696-.49261z"/><path d="m18.2609 0h-16.52177c-.942028 0-1.73913.722496-1.73913 1.57635v16.84725c0 .8539.797102 1.5764 1.73913 1.5764h16.52177c.942 0 1.7391-.7225 1.7391-1.5764v-16.8144c0-.886704-.7971-1.6092-1.7391-1.6092zm.8695 18.4565c0 .4269-.3985.7882-.8695.7882h-16.52177c-.47101 0-.869565-.3613-.869565-.7882v-16.8473c0-.42693.398555-.788182.869565-.788182h16.52177c.471 0 .8695.361252.8695.788182z"/></g></svg>