<svg fill="none" height="21" viewBox="0 0 21 21" width="21" xmlns="http://www.w3.org/2000/svg"><g fill="#000"><path d="m15.4268 14.4805v-1.5418c0-.1184-.047-.232-.1308-.3157-.0837-.0838-.1973-.1308-.3158-.1308-.1184 0-.232.047-.3157.1308-.0838.0837-.1308.1973-.1308.3157v1.7267c0 .1185.0471.232.1308.3157l1.2032 1.2032c.0837.0837.1973.1308.3157.1308s.232-.0471.3157-.1308c.0838-.0837.1308-.1973.1308-.3157s-.047-.232-.1308-.3157z"/><path clip-rule="evenodd" d="m4 2h10c1.6569 0 3 1.34315 3 3v3.28988c.3452.10275.6793.23142 1 .38375v-3.67363c0-2.20914-1.7909-4-4-4h-10c-2.20914 0-4 1.79086-4 4v10c0 2.2091 1.79086 4 4 4h5.25469c-.21997-.3154-.41464-.6497-.58106-1h-4.67363c-1.65685 0-3-1.3431-3-3v-10c0-1.65685 1.34315-3 3-3z" fill-rule="evenodd"/><path d="m5 7h7v1h-7z"/><path d="m5 10h3v1h-3z"/><path d="m5 0h1v3h-1z"/><path d="m12 0h1v3h-1z"/></g><circle cx="15" cy="15" r="5.5" stroke="#000"/></svg>