<svg id="invoice-bill-svgrepo-com" xmlns="http://www.w3.org/2000/svg" width="23.257" height="27.432" viewBox="0 0 23.257 27.432">
  <g id="Group_11" data-name="Group 11" transform="translate(0 0)">
    <g id="Group_10" data-name="Group 10" transform="translate(0)">
      <path id="Path_11" data-name="Path 11" d="M60.926.1,57.748,1.684,54.57.1a.894.894,0,0,0-.8,0L50.592,1.684,47.414.1a.894.894,0,0,0-.8,0L43.437,1.684,40.259.1a.9.9,0,0,0-1.295.8V24.749a.9.9,0,0,0,.494.8l3.578,1.789a.894.894,0,0,0,.8,0l3.178-1.589,3.178,1.589a.894.894,0,0,0,.8,0l3.178-1.589,3.178,1.589a.894.894,0,0,0,.8,0l3.578-1.789a.9.9,0,0,0,.494-.8V.9A.9.9,0,0,0,60.926.1Zm-.494,21.075V24.2l-2.683,1.342L54.57,23.949a.895.895,0,0,0-.8,0l-3.178,1.589-3.178-1.589a.894.894,0,0,0-.8,0l-3.178,1.589L40.753,24.2V2.343l2.283,1.142a.894.894,0,0,0,.8,0L47.014,1.9l3.178,1.589a.894.894,0,0,0,.8,0L54.17,1.9l3.178,1.589a.894.894,0,0,0,.8,0l2.283-1.142V21.171Z" transform="translate(-38.964 0)" fill="#fff"/>
    </g>
  </g>
  <g id="Group_13" data-name="Group 13" transform="translate(3.578 5.368)">
    <g id="Group_12" data-name="Group 12" transform="translate(0)">
      <path id="Path_12" data-name="Path 12" d="M111.41,100.189h-4.771a.894.894,0,1,0,0,1.789h4.771a.894.894,0,1,0,0-1.789Z" transform="translate(-105.745 -100.189)" fill="#fff"/>
    </g>
  </g>
  <g id="Group_15" data-name="Group 15" transform="translate(3.578 8.946)">
    <g id="Group_14" data-name="Group 14" transform="translate(0)">
      <path id="Path_13" data-name="Path 13" d="M111.41,166.969h-4.771a.894.894,0,1,0,0,1.789h4.771a.894.894,0,1,0,0-1.789Z" transform="translate(-105.745 -166.969)" fill="#fff"/>
    </g>
  </g>
  <g id="Group_17" data-name="Group 17" transform="translate(3.578 12.524)">
    <g id="Group_16" data-name="Group 16" transform="translate(0)">
      <path id="Path_14" data-name="Path 14" d="M111.41,233.749h-4.771a.894.894,0,1,0,0,1.789h4.771a.894.894,0,1,0,0-1.789Z" transform="translate(-105.745 -233.749)" fill="#fff"/>
    </g>
  </g>
  <g id="Group_19" data-name="Group 19" transform="translate(3.578 16.102)">
    <g id="Group_18" data-name="Group 18" transform="translate(0)">
      <path id="Path_15" data-name="Path 15" d="M111.41,300.53h-4.771a.894.894,0,1,0,0,1.789h4.771a.894.894,0,1,0,0-1.789Z" transform="translate(-105.745 -300.53)" fill="#fff"/>
    </g>
  </g>
  <g id="Group_21" data-name="Group 21" transform="translate(1.789 20.276)">
    <g id="Group_20" data-name="Group 20" transform="translate(0)">
      <path id="Path_16" data-name="Path 16" d="M75.038,378.44H73.25a.895.895,0,0,0,0,1.789h1.789a.895.895,0,0,0,0-1.789Z" transform="translate(-72.355 -378.44)" fill="#fff"/>
    </g>
  </g>
  <g id="Group_23" data-name="Group 23" transform="translate(7.156 20.276)">
    <g id="Group_22" data-name="Group 22">
      <path id="Path_17" data-name="Path 17" d="M175.208,378.44h-1.789a.895.895,0,0,0,0,1.789h1.789a.895.895,0,0,0,0-1.789Z" transform="translate(-172.525 -378.44)" fill="#fff"/>
    </g>
  </g>
  <g id="Group_25" data-name="Group 25" transform="translate(12.523 20.276)">
    <g id="Group_24" data-name="Group 24">
      <path id="Path_18" data-name="Path 18" d="M275.379,378.44H273.59a.895.895,0,1,0,0,1.789h1.789a.895.895,0,1,0,0-1.789Z" transform="translate(-272.696 -378.44)" fill="#fff"/>
    </g>
  </g>
  <g id="Group_27" data-name="Group 27" transform="translate(17.89 20.276)">
    <g id="Group_26" data-name="Group 26">
      <path id="Path_19" data-name="Path 19" d="M375.549,378.44H373.76a.895.895,0,0,0,0,1.789h1.789a.895.895,0,0,0,0-1.789Z" transform="translate(-372.866 -378.44)" fill="#fff"/>
    </g>
  </g>
  <g id="Group_29" data-name="Group 29" transform="translate(13.119 4.175)">
    <g id="Group_28" data-name="Group 28" transform="translate(0)">
      <path id="Path_20" data-name="Path 20" d="M287.524,84c-.938-.5-1.909-1.009-1.909-1.595a1.491,1.491,0,0,1,2.982,0,.894.894,0,1,0,1.789,0A3.285,3.285,0,0,0,288,79.247v-.423a.894.894,0,1,0-1.789,0v.423a3.285,3.285,0,0,0-2.385,3.155c0,1.663,1.587,2.5,2.862,3.176.938.5,1.909,1.009,1.909,1.595a1.491,1.491,0,0,1-2.982,0,.894.894,0,1,0-1.789,0,3.285,3.285,0,0,0,2.385,3.155v.423a.894.894,0,1,0,1.789,0v-.423a3.285,3.285,0,0,0,2.385-3.155C290.386,85.509,288.8,84.67,287.524,84Z" transform="translate(-283.826 -77.929)" fill="#fff"/>
    </g>
  </g>
</svg>
