<svg xmlns="http://www.w3.org/2000/svg" width="62" height="62" viewBox="0 0 62 62">
  <g id="Group_8667" data-name="Group 8667" transform="translate(-958 -317)">
    <circle id="Ellipse_13" data-name="Ellipse 13" cx="31" cy="31" r="31" transform="translate(958 317)" fill="#3cdfcd"/>
    <g id="Group_713" data-name="Group 713" transform="translate(1538.574 1185.936)">
      <path id="Path_862" data-name="Path 862" d="M-532.873-833.944c-.275-.358-.526-.739-.833-1.068a.946.946,0,0,1-.187-.748q0-5.48,0-10.959c0-.975-.222-1.2-1.2-1.2h-29.286c-.944,0-1.17.223-1.17,1.16q0,8.235,0,16.469c0,.985.2,1.186,1.2,1.186,6.5,0,13,.016,19.5-.021.766,0,1.205.161,1.289.981-.1.134-.277.059-.425.059-6.831,0-13.663-.008-20.494.016a2.137,2.137,0,0,1-2.091-1.3V-847.7a1.565,1.565,0,0,1,1.363-1.239h30.975a1.516,1.516,0,0,1,1.363,1.363Z" transform="translate(0 0)" fill="#fff"/>
      <path id="Path_863" data-name="Path 863" d="M-527.193-823.242h-12.881c-.787,0-.8-.012-.8-.8,0-.578.008-1.156,0-1.734-.007-.367.153-.537.519-.522.124.005.248,0,.372,0h25.576c.861,0,.862,0,.863.856,0,.5-.028.993.007,1.486.039.542-.169.724-.71.718-2.085-.023-4.17-.009-6.255-.009Z" transform="translate(-22.513 -19.837)" fill="#fff"/>
      <path id="Path_864" data-name="Path 864" d="M-537.768-780.488c-1.381,0-2.762,0-4.144,0-.811,0-1-.271-.692-1.032a1.618,1.618,0,0,1,1.4-1.131,11.128,11.128,0,0,0,1.462-.231.832.832,0,0,0,.5-1.406c-.236-.336-.454-.685-.665-1.037-.2-.328-.351-.656,0-1,.2-.2.066-.475.058-.708a2.08,2.08,0,0,1,1.133-1.89c.867-.592,1.54-.191,2.251.185a1.77,1.77,0,0,1,.931,1.865.889.889,0,0,0,.172.749c.194.216.01.484-.1.688-.258.467-.54.923-.841,1.364-.368.54-.227,1,.434,1.168a12.643,12.643,0,0,0,1.582.263,1.668,1.668,0,0,1,1.451,1.324c.175.573-.01.823-.611.828C-534.882-780.481-536.325-780.489-537.768-780.488Z" transform="translate(-20.88 -52.31)" fill="#fff"/>
      <path id="Path_865" data-name="Path 865" d="M-446.913-759.833c2.041,0,4.081.006,6.122,0,.451,0,.788.08.774.623s-.393.531-.783.53q-6.122,0-12.244,0c-.4,0-.761,0-.771-.541s.34-.614.78-.612C-450.994-759.828-448.953-759.833-446.913-759.833Z" transform="translate(-98.789 -78.059)" fill="#fff"/>
      <path id="Path_866" data-name="Path 866" d="M-449.126-785.047c-1.319,0-2.639-.009-3.958,0-.434,0-.731-.093-.73-.6,0-.489.3-.545.7-.543q4.02.015,8.039,0c.405,0,.7.075.706.548,0,.5-.305.6-.738.595C-446.446-785.056-447.786-785.047-449.126-785.047Z" transform="translate(-98.79 -54.976)" fill="#fff"/>
      <path id="Path_867" data-name="Path 867" d="M-444.214-733.048a1.506,1.506,0,0,1-1.771,1.155c-2.346-.073-4.7-.031-7.045-.019-.442,0-.79-.04-.775-.6.014-.543.381-.537.776-.536C-450.108-733.045-447.186-733.048-444.214-733.048Z" transform="translate(-98.796 -101.527)" fill="#fff"/>
      <path id="Path_868" data-name="Path 868" d="M-366.808-738.785a4.872,4.872,0,0,0-4.823-4.043,4.886,4.886,0,0,0-4.818,4.343,4.913,4.913,0,0,0,3.328,5.182c.168.055.376.034.456.249h1.611c.042-.035.081-.1.127-.1A4.779,4.779,0,0,0-366.808-738.785Zm-5.932,4.631a3.978,3.978,0,0,1-2.528-2.272c-.145-.321-.135-.626.192-.8a.564.564,0,0,1,.832.266,3.267,3.267,0,0,0,1.444,1.384,1.092,1.092,0,0,1,.631.94C-372.169-734.194-372.311-734.018-372.74-734.154Zm1.129-2.617a.917.917,0,0,1-.923-.944.947.947,0,0,1,.919-.9.953.953,0,0,1,.923.962A.908.908,0,0,1-371.611-736.77Zm3.8.009a3.33,3.33,0,0,1-.788,1.43,3.946,3.946,0,0,1-1.786,1.163c-.368.12-.537.013-.549-.391a1,1,0,0,1,.511-.984,3.589,3.589,0,0,0,1.558-1.525.534.534,0,0,1,.683-.277A.516.516,0,0,1-367.815-736.761Zm-.562-1.927a14.311,14.311,0,0,0-1.97-.684,6.375,6.375,0,0,0-4.129.6c-.27.13-.576.37-.845.09-.235-.245-.026-.553.081-.808a4.006,4.006,0,0,1,3.809-2.443,4,4,0,0,1,3.539,2.562c.044.114.069.236.1.359C-367.792-738.564-368.079-738.581-368.377-738.688Z" transform="translate(-166.528 -92.961)" fill="#fff"/>
      <path id="Path_869" data-name="Path 869" d="M-338.385-702.82c-.01.145-.095.231-.232.214a.217.217,0,0,1-.187-.266.183.183,0,0,1,.205-.175C-338.455-703.047-338.372-702.975-338.385-702.82Z" transform="translate(-199.548 -127.813)" fill="#fff"/>
    </g>
  </g>
</svg>
