<svg xmlns="http://www.w3.org/2000/svg" width="96.303" height="74.391" viewBox="0 0 96.303 74.391">
  <g id="payment-method-svgrepo-com" transform="translate(0.418)">
    <g id="Group_6" data-name="Group 6" transform="translate(37.57 27.445)">
      <rect id="Rectangle_14" data-name="Rectangle 14" width="58.315" height="31.388" fill="#86d359"/>
      <path id="Path_8" data-name="Path 8" d="M236.979,143.848V157.7a5.478,5.478,0,0,0-5.479,5.379H190.817a5.478,5.478,0,0,0-5.479-5.379V143.848a5.481,5.481,0,0,0,5.482-5.482H231.5A5.481,5.481,0,0,0,236.979,143.848Z" transform="translate(-182.002 -135.029)" fill="#77bc4a"/>
    </g>
    <g id="Group_9" data-name="Group 9" transform="translate(33.657)">
      <path id="Path_10" data-name="Path 10" d="M193.494,4.8V69.59a4.8,4.8,0,0,1-4.8,4.8H157.555a4.8,4.8,0,0,1-4.8-4.8V4.8a4.8,4.8,0,0,1,4.8-4.8h31.136A4.8,4.8,0,0,1,193.494,4.8Z" transform="translate(-152.752)" fill="gray"/>
      <rect id="Rectangle_15" data-name="Rectangle 15" width="36.897" height="53.44" transform="translate(1.924 9.819)" fill="#2be0c6"/>
      <circle id="Ellipse_3" data-name="Ellipse 3" cx="3.802" cy="3.802" r="3.802" transform="translate(16.57 65.17)" fill="#4d4d4d"/>
      <path id="Path_11" data-name="Path 11" d="M206.149,73.821H177.143a.625.625,0,0,1-.625-.625V65.325a.625.625,0,0,1,.625-.625h29.006a.625.625,0,0,1,.625.625V73.2A.625.625,0,0,1,206.149,73.821Z" transform="translate(-171.231 -50.306)" fill="#e6e6e6"/>
      <path id="Path_12" data-name="Path 12" d="M293.232,129.039h-4.089a.625.625,0,0,1-.625-.625v-4.089a.625.625,0,0,1,.625-.625h4.089a.625.625,0,0,1,.625.625v4.089A.625.625,0,0,1,293.232,129.039Z" transform="translate(-258.315 -96.181)" fill="#f9de58"/>
      <path id="Path_13" data-name="Path 13" d="M293.232,165.039h-4.089a.625.625,0,0,1-.625-.625v-4.089a.625.625,0,0,1,.625-.625h4.089a.625.625,0,0,1,.625.625v4.089A.625.625,0,0,1,293.232,165.039Z" transform="translate(-258.315 -124.172)" fill="#fc7a51"/>
      <g id="Group_8" data-name="Group 8" transform="translate(5.287 27.519)">
        <path id="Path_14" data-name="Path 14" d="M181.232,129.039h-4.089a.625.625,0,0,1-.625-.625v-4.089a.625.625,0,0,1,.625-.625h4.089a.625.625,0,0,1,.625.625v4.089A.625.625,0,0,1,181.232,129.039Z" transform="translate(-176.518 -123.7)" fill="gray"/>
        <path id="Path_15" data-name="Path 15" d="M218.565,129.039h-4.089a.625.625,0,0,1-.625-.625v-4.089a.625.625,0,0,1,.625-.625h4.089a.625.625,0,0,1,.625.625v4.089A.625.625,0,0,1,218.565,129.039Z" transform="translate(-205.546 -123.7)" fill="gray"/>
        <path id="Path_16" data-name="Path 16" d="M255.9,129.039H251.81a.625.625,0,0,1-.625-.625v-4.089a.625.625,0,0,1,.625-.625H255.9a.625.625,0,0,1,.625.625v4.089A.625.625,0,0,1,255.9,129.039Z" transform="translate(-234.574 -123.7)" fill="gray"/>
        <path id="Path_17" data-name="Path 17" d="M181.232,165.039h-4.089a.625.625,0,0,1-.625-.625v-4.089a.625.625,0,0,1,.625-.625h4.089a.625.625,0,0,1,.625.625v4.089A.625.625,0,0,1,181.232,165.039Z" transform="translate(-176.518 -151.691)" fill="gray"/>
        <path id="Path_18" data-name="Path 18" d="M218.565,165.039h-4.089a.625.625,0,0,1-.625-.625v-4.089a.625.625,0,0,1,.625-.625h4.089a.625.625,0,0,1,.625.625v4.089A.625.625,0,0,1,218.565,165.039Z" transform="translate(-205.546 -151.691)" fill="gray"/>
        <path id="Path_19" data-name="Path 19" d="M255.9,165.039H251.81a.625.625,0,0,1-.625-.625v-4.089a.625.625,0,0,1,.625-.625H255.9a.625.625,0,0,1,.625.625v4.089A.625.625,0,0,1,255.9,165.039Z" transform="translate(-234.574 -151.691)" fill="gray"/>
        <path id="Path_20" data-name="Path 20" d="M181.232,201.77h-4.089a.625.625,0,0,1-.625-.625v-4.089a.625.625,0,0,1,.625-.625h4.089a.625.625,0,0,1,.625.625v4.089A.625.625,0,0,1,181.232,201.77Z" transform="translate(-176.518 -180.251)" fill="gray"/>
        <path id="Path_21" data-name="Path 21" d="M218.565,201.77h-4.089a.625.625,0,0,1-.625-.625v-4.089a.625.625,0,0,1,.625-.625h4.089a.625.625,0,0,1,.625.625v4.089A.625.625,0,0,1,218.565,201.77Z" transform="translate(-205.546 -180.251)" fill="gray"/>
        <path id="Path_22" data-name="Path 22" d="M255.9,201.77H251.81a.625.625,0,0,1-.625-.625v-4.089a.625.625,0,0,1,.625-.625H255.9a.625.625,0,0,1,.625.625v4.089A.625.625,0,0,1,255.9,201.77Z" transform="translate(-234.574 -180.251)" fill="gray"/>
        <path id="Path_23" data-name="Path 23" d="M293.232,201.77h-4.089a.625.625,0,0,1-.625-.625v-4.089a.625.625,0,0,1,.625-.625h4.089a.625.625,0,0,1,.625.625v4.089A.625.625,0,0,1,293.232,201.77Z" transform="translate(-263.602 -180.251)" fill="gray"/>
      </g>
      <rect id="Rectangle_16" data-name="Rectangle 16" width="6.452" height="1.557" transform="translate(26.421 20.178)" fill="#999"/>
    </g>
    <path id="Path_24" data-name="Path 24" d="M237.643,4.8V69.59a4.8,4.8,0,0,1-4.8,4.8H232.2l-3.393-11.132L212.524,9.82,209.532,0H232.84A4.8,4.8,0,0,1,237.643,4.8Z" transform="translate(-163.243)" fill="#fff" opacity="0.32"/>
    <rect id="Rectangle_27" data-name="Rectangle 27" width="3.876" height="28.493" transform="translate(29.781 13.632)" fill="#4d4d4d" opacity="0.2"/>
    <rect id="Rectangle_28" data-name="Rectangle 28" width="3.098" height="31.388" transform="translate(74.4 27.445)" fill="#4d4d4d" opacity="0.2"/>
    <g id="Group_5" data-name="Group 5" transform="translate(-0.418 12.074)">
      <g id="Group_4" data-name="Group 4">
        <path id="Path_6" data-name="Path 6" d="M70.437,63.974v23.1a2.7,2.7,0,0,1-2.7,2.7H26.429a2.7,2.7,0,0,1-2.7-2.7v-23.1a2.7,2.7,0,0,1,2.7-2.7h41.31A2.7,2.7,0,0,1,70.437,63.974Z" transform="translate(-23.73 -61.275)" fill="#29abe2"/>
        <rect id="Rectangle_13" data-name="Rectangle 13" width="46.707" height="6.968" transform="translate(0 6.062)" fill="#4d4d4d"/>
      </g>
      <path id="Path_7" data-name="Path 7" d="M40.995,144.78a5.589,5.589,0,0,0,1.443,3.753,3.225,3.225,0,0,1-.377.02,3.773,3.773,0,1,1,0-7.547,3.225,3.225,0,0,1,.377.02A5.589,5.589,0,0,0,40.995,144.78Z" transform="translate(-35.049 -123.269)" fill="#fc7a51"/>
      <circle id="Ellipse_1" data-name="Ellipse 1" cx="3.773" cy="3.773" r="3.773" transform="translate(7.787 17.738)" fill="#f4d521"/>
    </g>
  </g>
</svg>
