<svg width="67" height="42" fill="none" xmlns="http://www.w3.org/2000/svg"><path d="M11.071 15.571a4.5 4.5 0 014.5-4.5h5.262v5.262a4.5 4.5 0 01-4.5 4.5h-5.262v-5.262zm54.429 0a4.5 4.5 0 00-4.5-4.5h-5.262v5.262a4.5 4.5 0 004.5 4.5H65.5v-5.262zM11.071 35.476a4.5 4.5 0 004.5 4.5h5.262v-5.262a4.5 4.5 0 00-4.5-4.5h-5.262v5.262zm54.429 0a4.5 4.5 0 01-4.5 4.5h-5.262v-5.262a4.5 4.5 0 014.5-4.5H65.5v5.262z" stroke="#0D66CC" stroke-width="3"/><rect x="11.071" y="11.071" width="54.429" height="28.905" rx="4.5" stroke="#7CB9FF" stroke-width="3"/><circle cx="38.463" cy="25.228" r="7.185" stroke="#0D66CC" stroke-width="3"/><path d="M3.19 3.19h47.857A3.19 3.19 0 0047.858 0H3.19A3.19 3.19 0 000 3.19v25.524a3.19 3.19 0 003.19 3.19V3.19z" fill="#7CB9FF"/><path d="M3.19 28.714h1.596a1.595 1.595 0 110 3.19H3.19v-3.19zM51.048 3.19v1.596a1.595 1.595 0 11-3.19 0V3.19h3.19z" fill="#7CB9FF"/></svg>