<svg xmlns="http://www.w3.org/2000/svg" width="36" height="36" fill="none"><circle cx="18" cy="8" r="6" stroke="#fff" stroke-width="4"/><path stroke="#fff" stroke-linecap="round" stroke-width="4" d="M2 32.1c0-2.156 1.317-4.375 4.13-6.15C8.934 24.18 13.045 23 18 23c4.895 0 9.004 1.347 11.834 3.22C32.733 28.136 34 30.376 34 32.1v.9a1 1 0 0 1-1 1H3a1 1 0 0 1-1-1v-.9Z"/><g fill="#fff" opacity=".3"><path d="M26 16c0-.92.746-1.667 1.667-1.667h6.666a1.667 1.667 0 1 1 0 3.334h-6.666C26.747 17.667 26 16.92 26 16Z"/><path d="M31 11c.92 0 1.667.746 1.667 1.667v6.666a1.667 1.667 0 1 1-3.334 0v-6.666c0-.92.747-1.667 1.667-1.667Z"/></g></svg>