<svg width="92" height="45" fill="none" xmlns="http://www.w3.org/2000/svg"><path fill-rule="evenodd" clip-rule="evenodd" d="M70.782 14.035a1.5 1.5 0 011.5 1.5v8.947h10.757c3.643 0 5.817 1.818 7.02 3.642a9.788 9.788 0 011.405 3.46l.013.076.004.025.001.009v.005s.001.002-1.483.217l1.484-.215c.01.071.016.143.016.215v6.061a1.5 1.5 0 01-1.5 1.5h-8.207a1.5 1.5 0 110-3h6.707V32.05a6.242 6.242 0 00-.16-.608 6.785 6.785 0 00-.786-1.667c-.753-1.144-2.06-2.293-4.514-2.293H70.782a1.5 1.5 0 01-1.5-1.5V15.535a1.5 1.5 0 011.5-1.5z" fill="#6FA6E5"/><path fill-rule="evenodd" clip-rule="evenodd" d="M53.761 15.535a1.5 1.5 0 011.5-1.5h20.88a1.5 1.5 0 011.5 1.5V31.67a1.5 1.5 0 11-3 0V17.035h-19.38a1.5 1.5 0 01-1.5-1.5z" fill="#6FA6E5"/><path fill-rule="evenodd" clip-rule="evenodd" d="M53.761 6.574a1.5 1.5 0 011.5-1.5h4.258c6.204.033 10.685 2.442 13.603 4.846a21.46 21.46 0 013.23 3.299c.354.452.62.833.801 1.107a11.213 11.213 0 01.266.423l.017.03.006.009.002.004.001.001s0 .002-1.304.742l1.305-.74a1.5 1.5 0 01-2.607 1.484l-.001-.002-.004-.007a7.943 7.943 0 00-.184-.291 13.58 13.58 0 00-.66-.91c-.6-.767-1.52-1.799-2.775-2.834-2.502-2.06-6.335-4.131-11.708-4.161h-4.246a1.5 1.5 0 01-1.5-1.5zm21.076 9.703zm0 0v-.002l1.247-.707c-1.237.701-1.247.709-1.247.709zM.5 38.13a1.5 1.5 0 011.5-1.5h15.742a1.5 1.5 0 010 3H2a1.5 1.5 0 01-1.5-1.5zm27.355 0a1.5 1.5 0 011.5-1.5h40a1.5 1.5 0 010 3h-40a1.5 1.5 0 01-1.5-1.5z" fill="#6FA6E5"/><path fill-rule="evenodd" clip-rule="evenodd" d="M59.511 5.075a1.5 1.5 0 011.5 1.5v31.402a1.5 1.5 0 01-3 0V6.575a1.5 1.5 0 011.5-1.5zm16.63 28.341c-2.296 0-4.167 1.87-4.167 4.188 0 2.317 1.87 4.187 4.167 4.187 2.296 0 4.167-1.87 4.167-4.188 0-2.317-1.87-4.187-4.167-4.187zm-7.167 4.188c0-3.965 3.204-7.188 7.167-7.188 3.963 0 7.167 3.223 7.167 7.187 0 3.965-3.204 7.188-7.167 7.188-3.963 0-7.167-3.223-7.167-7.188zM50.373 2a1.5 1.5 0 011.5-1.5h3.388a1.5 1.5 0 011.5 1.5v35.977a1.5 1.5 0 11-3 0V3.5h-1.888a1.5 1.5 0 01-1.5-1.5z" fill="#6FA6E5"/><path fill-rule="evenodd" clip-rule="evenodd" d="M.5 32.09a1.5 1.5 0 011.5-1.5h52a1.5 1.5 0 010 3H2a1.5 1.5 0 01-1.5-1.5zm61.699-6.11a1.5 1.5 0 011.5-1.5h2.835a1.5 1.5 0 010 3h-2.835a1.5 1.5 0 01-1.5-1.5z" fill="#6FA6E5"/><path fill-rule="evenodd" clip-rule="evenodd" d="M23.409 33.416c-2.296 0-4.167 1.87-4.167 4.188 0 2.317 1.87 4.187 4.167 4.187 2.296 0 4.167-1.87 4.167-4.188 0-2.317-1.871-4.187-4.167-4.187zm-7.167 4.188c0-3.965 3.204-7.188 7.167-7.188 3.963 0 7.167 3.223 7.167 7.187 0 3.965-3.204 7.188-7.167 7.188-3.963 0-7.167-3.223-7.167-7.188zm68.438-5.688a1.5 1.5 0 011.5-1.5H90a1.5 1.5 0 010 3h-3.82a1.5 1.5 0 01-1.5-1.5z" fill="#6FA6E5"/><path fill-rule="evenodd" clip-rule="evenodd" d="M7.222 24.808l.042-.192c.076-.338.19-.801.312-1.276a37.21 37.21 0 01.41-1.46l.82-.06.303-.022.098-.007.043-.003.031-.003.088-.01c.083-.012.147-.028.165-.032h.002a2.71 2.71 0 00.196-.05 209.095 209.095 0 00.954-.277l.19-.056a243.75 243.75 0 012.664-.77c2.085-.588 4.274-1.16 5.353-1.308h.004c2.749-.384 4.575-.532 8.182-.231 3.441.537 5.842 1.844 8.431 3.255l.784.425.167.09.182.057c.243.077.468.096.527.1l.007.001c.1.009.2.013.285.016a19.245 19.245 0 00.8.006c.316 0 .607-.001.837.007 1.888.09 4.023.375 5.857.844.918.235 1.721.506 2.362.8a7.5 7.5 0 01.4.198 7.01 7.01 0 00-.075.559l-.01.134.007.135c.007.13.002.264-.008.374a5.068 5.068 0 01-.206.317l-.224.036c-.4.063-.84.117-1.11.148l-6.877.26h-.024c-6.467.4-13.83.432-21.799.218-1.013-.085-2.073-.276-3.232-.5l-.426-.082c-1.029-.2-2.137-.415-3.239-.554l-.059-.007-.06-.004a76.02 76.02 0 01-1.69-.133c-.348-.031-.68-.065-.953-.099a17.175 17.175 0 01-.49-.807l-.02-.037zm-.535 2.68c.374.176 3.286.374 3.558.392 1.03.13 2.07.331 3.105.532 1.323.257 2.642.513 3.933.617 8.022.216 15.47.186 22.03-.22l6.93-.26c.534-.06 2.08-.248 2.304-.416.272-.204.964-1.225 1.022-1.516.058-.29.087-.683.068-1.046.029-.353.194-1.167.363-1.506-1.71-1.85-6.813-2.866-10.818-3.055-.273-.01-.618-.01-.943-.01-.47.002-.896.002-.996-.03-.263-.141-.526-.285-.79-.429-2.594-1.415-5.3-2.891-9.138-3.477-3.825-.323-5.808-.166-8.694.236-1.925.264-6.452 1.595-8.501 2.197-.41.12-.72.212-.89.26a2.58 2.58 0 01-.137.035l-.008.002h-.003c-.022.003-.071.006-.141.011l-.127.01c-.67.047-2.322.164-2.46.23-.027.054-.02.141-.01.245.013.16.03.36-.081.521-.167.125-1.14 3.946-1.058 3.995-.003.22 0 .47.145.75 0 0 .945 1.749 1.337 1.933zm2.395-7.693l.001-.001h.002-.003zm.011.138l.104 1.858zm0 0l.104 1.858zM7.29 25.586z" fill="#0D66CC"/><path fill-rule="evenodd" clip-rule="evenodd" d="M40.539 22.815a.25.25 0 01-.196.294c-1.761.352-2.574 1.456-2.958 2.545-.352 1.001-.337 1.979-.33 2.345v.341H17.894a.25.25 0 010-.5h18.658c-.003-.46.025-1.396.362-2.353.427-1.214 1.358-2.475 3.33-2.87a.25.25 0 01.295.197z" fill="#0D66CC"/><path d="M14.265 30.241a3.27 3.27 0 100-6.54 3.27 3.27 0 000 6.54zm26.835 0a3.27 3.27 0 100-6.54 3.27 3.27 0 000 6.54z" fill="#C5E4FF"/><path d="M14.265 30.63a3.643 3.643 0 113.644-3.66c0 .967-.384 1.894-1.068 2.577a3.658 3.658 0 01-2.576 1.082zm0-6.571a2.898 2.898 0 102.882 2.927 2.912 2.912 0 00-.853-2.045c-.542-.542-1.262-.878-2.03-.882zM41.1 30.63a3.643 3.643 0 113.644-3.66 3.645 3.645 0 01-3.66 3.644l.016.015zm0-6.571a2.897 2.897 0 102.897 2.912 2.912 2.912 0 00-2.912-2.897l.015-.015z" fill="#0D66CC"/><path d="M41.1 28.837a1.867 1.867 0 100-3.733 1.867 1.867 0 000 3.733z" fill="#3E6C93"/><path d="M39.218 26.97a1.867 1.867 0 111.15 1.733 1.852 1.852 0 01-.91-.836m-25.193.97a1.867 1.867 0 100-3.733 1.867 1.867 0 000 3.733z" fill="#0D66CC"/><circle r=".25" transform="scale(-1 1) rotate(15 -110.93 -40.107)" fill="#C5E4FF" stroke="#3E6C93" stroke-width=".5" stroke-dasharray="0.25 0.25"/><path d="M24.374 22.49c-4.291-.304-9.199-.742-9.991-1.208-.286-.204-.184-.436.005-.527 0 0 3.407-1.246 9.233-1.303.077.26.623 2.184.753 3.037zm8.457-.698c-.508.328-.431.797-.097 1.007-.286.052-4.365.043-7.207-.132-.082-.413-.91-3.224-.815-3.215 3.386.302 7.792 1.698 7.976 1.965.048.072.286.282.143.375zm14.07 3.66a2.913 2.913 0 00-.816-.218.503.503 0 00-.313.131c-.718-.072-1.542-.663-2.45-1.41.406-.05.916.018 1.483.059.985.386 1.796.72 2.178 1.115.046.05-.009.327-.083.323zm-40.58-2.933c.09-.072.577-.286 1.376-.2.8.087 1.57 1.06 1.57 1.06s-.314.232-.722.295c-.409.064-2.503.059-2.542 0-.039-.059.224-1.082.318-1.155zm20.004 1.088c-.275-.138-.461-.34-.431-.365.564.155 1.351.05 1.73.14.378.09.495.292.495.292s-1.519.07-1.794-.067zm-10.674-.66c-.25-.147-.415-.357-.385-.38.52.177 1.26.102 1.609.207s.448.31.448.31-1.422.011-1.672-.137z" fill="#0D66CC"/></svg>